<?xml version="1.0" encoding="utf-8"?>
<!-- Generator: Adobe Illustrator 17.0.0, SVG Export Plug-In . SVG Version: 6.00 Build 0)  -->
<!DOCTYPE svg PUBLIC "-//W3C//DTD SVG 1.1//EN" "http://www.w3.org/Graphics/SVG/1.1/DTD/svg11.dtd">
<svg version="1.1" id="Layer_1" xmlns="http://www.w3.org/2000/svg" xmlns:xlink="http://www.w3.org/1999/xlink" x="0px" y="0px"
	 width="136px" height="60px" viewBox="-77.753 789.464 136 60" enable-background="new -77.753 789.464 136 60"
	 xml:space="preserve">
<path fill="#FFFFFF" d="M58.247,846.464c0,1.657-1.343,3-3,3h-130c-1.657,0-3-1.343-3-3v-54c0-1.657,1.343-3,3-3h130
	c1.657,0,3,1.343,3,3V846.464z"/>
<g>
	<rect x="-69.881" y="797.828" fill="#ECEDEE" width="120.256" height="24.278"/>
	<rect x="-41.702" y="830.811" fill="#ECEDEE" width="58.845" height="2.712"/>
	<rect x="-23.352" y="838.387" fill="#ECEDEE" width="22.146" height="2.712"/>
</g>
<rect x="-67" y="809.967" fill="#FFFFFF" width="11.25" height="9.616"/>
<g>
	<path fill="#989A9B" d="M-58.351,812.33h-4.98l-0.011-0.088c-0.022-0.184-0.11-0.353-0.248-0.476s-0.317-0.191-0.502-0.191h-0.308
		v0.504h0.308c0.062,0,0.121,0.023,0.167,0.064c0.046,0.041,0.076,0.098,0.083,0.159l0.399,3.394
		c0.022,0.184,0.11,0.353,0.248,0.476c0.138,0.123,0.317,0.191,0.502,0.191h3.332v-0.504h-3.332c-0.062,0-0.121-0.023-0.168-0.064
		c-0.046-0.041-0.076-0.098-0.083-0.159l-0.033-0.281h4.078L-58.351,812.33z M-59.317,814.85h-3.716l-0.237-2.016h4.317
		L-59.317,814.85z"/>
	<path fill="#989A9B" d="M-62.635,817.623c0.278,0,0.504-0.226,0.504-0.504s-0.226-0.504-0.504-0.504
		c-0.278,0-0.504,0.226-0.504,0.504S-62.914,817.623-62.635,817.623z"/>
	<path fill="#989A9B" d="M-60.115,817.623c0.278,0,0.504-0.226,0.504-0.504s-0.226-0.504-0.504-0.504
		c-0.278,0-0.504,0.226-0.504,0.504S-60.393,817.623-60.115,817.623z"/>
</g>
</svg>
