<?xml version="1.0" encoding="utf-8"?>
<!-- Generator: Adobe Illustrator 17.0.0, SVG Export Plug-In . SVG Version: 6.00 Build 0)  -->
<!DOCTYPE svg PUBLIC "-//W3C//DTD SVG 1.1//EN" "http://www.w3.org/Graphics/SVG/1.1/DTD/svg11.dtd">
<svg version="1.1" id="Layer_1" xmlns="http://www.w3.org/2000/svg" xmlns:xlink="http://www.w3.org/1999/xlink" x="0px" y="0px"
	 width="136px" height="60px" viewBox="260.747 789.464 136 60" enable-background="new 260.747 789.464 136 60"
	 xml:space="preserve">
<path fill="#FFFFFF" d="M396.747,846.464c0,1.657-1.343,3-3,3h-130c-1.657,0-3-1.343-3-3v-54c0-1.657,1.343-3,3-3h130
	c1.657,0,3,1.343,3,3V846.464z"/>
<rect x="268.619" y="797.828" fill="#ECEDEE" width="120.256" height="24.278"/>
<rect x="297.105" y="827.811" fill="#ECEDEE" width="58.845" height="2.712"/>
<rect x="309.917" y="834.583" fill="#ECEDEE" width="38.583" height="10.25"/>
<g>
	<path d="M314.022,842.125v-4.295h1.611c0.328,0,0.591,0.044,0.789,0.131s0.354,0.221,0.467,0.4c0.111,0.182,0.168,0.37,0.168,0.567
		c0,0.184-0.05,0.356-0.149,0.519s-0.25,0.293-0.451,0.393c0.26,0.076,0.459,0.206,0.599,0.39s0.21,0.4,0.21,0.65
		c0,0.201-0.042,0.388-0.128,0.562c-0.084,0.172-0.189,0.306-0.314,0.399s-0.282,0.165-0.471,0.212
		c-0.188,0.049-0.419,0.072-0.692,0.072H314.022z M314.591,839.635h0.929c0.252,0,0.433-0.017,0.542-0.05
		c0.145-0.043,0.254-0.114,0.326-0.214c0.074-0.1,0.11-0.225,0.11-0.375c0-0.143-0.034-0.268-0.103-0.377
		c-0.068-0.107-0.166-0.182-0.293-0.223c-0.127-0.039-0.345-0.06-0.653-0.06h-0.858V839.635z M314.591,841.618h1.069
		c0.184,0,0.313-0.007,0.387-0.021c0.131-0.023,0.24-0.063,0.328-0.117s0.16-0.134,0.217-0.238s0.085-0.226,0.085-0.362
		c0-0.16-0.041-0.299-0.123-0.417s-0.196-0.201-0.342-0.25c-0.146-0.047-0.354-0.071-0.628-0.071h-0.993V841.618z"/>
	<path d="M322.066,837.83h0.568v2.481c0,0.432-0.049,0.774-0.146,1.028s-0.273,0.461-0.529,0.619
		c-0.254,0.16-0.589,0.239-1.003,0.239c-0.402,0-0.731-0.069-0.987-0.208s-0.438-0.339-0.548-0.602s-0.164-0.622-0.164-1.077v-2.481
		h0.568v2.479c0,0.373,0.034,0.648,0.104,0.824c0.068,0.178,0.188,0.313,0.357,0.409c0.168,0.096,0.375,0.144,0.619,0.144
		c0.418,0,0.716-0.095,0.894-0.284s0.267-0.554,0.267-1.093V837.83z"/>
	<path d="M325.874,842.125v-3.788h-1.415v-0.507h3.404v0.507h-1.421v3.788H325.874z"/>
	<path d="M330.738,842.125v-3.788h-1.415v-0.507h3.404v0.507h-1.421v3.788H330.738z"/>
	<path d="M334.229,840.033c0-0.713,0.191-1.271,0.574-1.674s0.877-0.605,1.482-0.605c0.396,0,0.754,0.095,1.072,0.284
		s0.562,0.454,0.728,0.792c0.168,0.34,0.251,0.724,0.251,1.153c0,0.436-0.088,0.825-0.264,1.169s-0.425,0.604-0.747,0.781
		s-0.67,0.265-1.043,0.265c-0.404,0-0.766-0.098-1.084-0.293s-0.56-0.462-0.724-0.8S334.229,840.41,334.229,840.033z
		 M334.815,840.042c0,0.518,0.14,0.926,0.417,1.224c0.279,0.298,0.628,0.446,1.048,0.446c0.428,0,0.779-0.15,1.056-0.451
		s0.415-0.728,0.415-1.28c0-0.35-0.06-0.654-0.177-0.916c-0.119-0.26-0.292-0.463-0.52-0.605c-0.228-0.145-0.482-0.216-0.766-0.216
		c-0.402,0-0.748,0.139-1.039,0.415C334.961,838.935,334.815,839.396,334.815,840.042z"/>
	<path d="M340.264,842.125v-4.295h0.583l2.256,3.372v-3.372h0.545v4.295h-0.583l-2.256-3.375v3.375H340.264z"/>
</g>
</svg>
