<?xml version="1.0" encoding="utf-8"?>
<!-- Generator: Adobe Illustrator 17.0.0, SVG Export Plug-In . SVG Version: 6.00 Build 0)  -->
<!DOCTYPE svg PUBLIC "-//W3C//DTD SVG 1.1//EN" "http://www.w3.org/Graphics/SVG/1.1/DTD/svg11.dtd">
<svg version="1.1" id="Layer_1" xmlns="http://www.w3.org/2000/svg" xmlns:xlink="http://www.w3.org/1999/xlink" x="0px" y="0px"
	 width="260px" height="78px" viewBox="-70.465 196.219 260 78" enable-background="new -70.465 196.219 260 78"
	 xml:space="preserve">
<path fill="#FFFFFF" d="M189.535,271.24c0,1.645-1.344,2.979-3.001,2.979H-67.464c-1.657,0-3.001-1.334-3.001-2.979v-72.043
	c0-1.645,1.344-2.979,3.001-2.979h253.998c1.657,0,3.001,1.334,3.001,2.979V271.24z"/>
<rect x="-65.391" y="252.565" opacity="0.3" fill="#AAACAD" enable-background="new    " width="249.934" height="0.5"/>
<rect x="-65.323" y="215.673" opacity="0.3" fill="#AAACAD" enable-background="new    " width="249.933" height="0.5"/>
<path fill="#989A9B" d="M41.655,238.379h5.135v-1.398h-3.441v-6.622h-1.694L41.655,238.379z M57.177,234.369
	c0-2.625-1.63-4.12-3.757-4.12c-2.14,0-3.757,1.496-3.757,4.12c0,2.612,1.619,4.12,3.757,4.12
	C55.547,238.49,57.177,236.992,57.177,234.369z M55.457,234.369c0,1.698-0.805,2.621-2.036,2.621c-1.235,0-2.036-0.922-2.036-2.621
	s0.803-2.621,2.036-2.621c1.231,0,2.038,0.92,2.038,2.621H55.457z M65.957,232.951h1.725c-0.221-1.586-1.617-2.702-3.43-2.702
	c-2.12,0-3.752,1.526-3.752,4.127c0,2.537,1.526,4.114,3.787,4.114c2.023,0,3.47-1.279,3.47-3.393v-1.01h-3.357v1.277h1.723
	c-0.022,0.993-0.701,1.626-1.829,1.626c-1.273,0-2.073-0.953-2.073-2.629c0-1.668,0.832-2.612,2.058-2.612
	c0.874,0,1.465,0.45,1.681,1.202H65.957z M78.607,234.369c0-2.625-1.63-4.12-3.757-4.12c-2.14,0-3.757,1.496-3.757,4.12
	c0,2.612,1.619,4.12,3.757,4.12C76.977,238.49,78.607,236.992,78.607,234.369z M76.886,234.369c0,1.698-0.805,2.621-2.036,2.621
	c-1.235,0-2.036-0.922-2.036-2.621s0.803-2.621,2.036-2.621C76.081,231.749,76.886,232.668,76.886,234.369z"/>
<g>
	<rect x="-54.402" y="262.05" fill="#ECEDEE" width="14.37" height="4.412"/>
	<rect x="-36.204" y="262.05" fill="#ECEDEE" width="14.37" height="4.412"/>
	<rect x="-18.006" y="262.05" fill="#ECEDEE" width="14.37" height="4.412"/>
	<rect x="0.192" y="262.05" fill="#ECEDEE" width="14.37" height="4.412"/>
</g>
<rect x="-54.5" y="203.209" fill="#ECEDEE" width="38.602" height="4.412"/>
<rect x="134.752" y="203.209" fill="#ECEDEE" width="38.602" height="4.412"/>
<rect x="40.398" y="203.209" fill="#ECEDEE" width="38.602" height="4.412"/>
<g>
	<rect x="173.354" y="260.697" fill="#989A9B" width="9.167" height="0.676"/>
	<rect x="173.354" y="263.241" fill="#989A9B" width="9.167" height="0.676"/>
	<rect x="173.354" y="265.648" fill="#989A9B" width="9.167" height="0.676"/>
</g>
<g>
	<g>
		<path fill="#989A9B" d="M124.195,264.628l-1.676,0.497l0.167,0.568l0.682-0.213c-0.718,1.04-1.935,1.62-3.195,1.523l0,0
			c-0.107-0.007-0.214-0.02-0.32-0.039l0,0l-0.277-0.06l-0.114-0.021l-0.199-0.06l-0.135-0.064l-0.131-0.053l-0.209-0.103
			c-1.083-0.555-1.803-1.628-1.907-2.84l-0.582,0.05c0.115,1.396,0.929,2.638,2.162,3.302l0,0c0.107,0.057,0.217,0.11,0.33,0.16
			h0.039c0.099,0.043,0.202,0.078,0.305,0.114l0.071,0.025l0.266,0.067l0.114,0.028c0.067,0,0.138,0.021,0.209,0.032l0.174,0.028
			l0,0c1.551,0.16,3.06-0.564,3.905-1.875l0.224,0.763l0.561-0.163L124.195,264.628z"/>
		<path fill="#989A9B" d="M116.74,262.114l1.697-0.415l-0.138-0.565l-0.678,0.167c0.768-1.002,2.01-1.521,3.263-1.363l0,0
			c0.106,0.013,0.212,0.032,0.316,0.057l0,0l0.273,0.071l0.075,0.025l0.199,0.071l0.142,0.06l0.128,0.06
			c0.067,0.035,0.138,0.071,0.206,0.114c1.055,0.608,1.725,1.713,1.775,2.929l0.582-0.021c-0.051-1.391-0.8-2.662-1.992-3.38l0,0
			l0,0c-0.103-0.064-0.21-0.122-0.32-0.174l-0.039-0.018c-0.097-0.045-0.196-0.088-0.298-0.128l-0.071-0.025
			c-0.085-0.032-0.174-0.06-0.263-0.085l-0.11-0.032l-0.206-0.046c-0.06,0-0.117-0.025-0.178-0.032h-0.018
			c-1.543-0.244-3.092,0.401-4.005,1.669l-0.188-0.774l-0.564,0.138L116.74,262.114z"/>
	</g>
	<g>
		<path fill="#989A9B" d="M150.258,267.64h-0.696v-1.756c0-0.273-0.109-0.535-0.302-0.728c-0.193-0.193-0.455-0.302-0.728-0.302
			h-2.816c-0.273,0-0.535,0.109-0.728,0.302c-0.193,0.193-0.302,0.455-0.302,0.728v1.756h-0.696v-1.756
			c0.001-0.458,0.183-0.896,0.506-1.22c0.324-0.324,0.762-0.506,1.22-0.506h2.816c0.458,0.001,0.896,0.183,1.22,0.506
			c0.324,0.324,0.506,0.762,0.506,1.22V267.64z"/>
		<path fill="#989A9B" d="M147.124,263.462c-0.413,0-0.817-0.123-1.161-0.352s-0.611-0.556-0.77-0.938s-0.2-0.802-0.119-1.207
			c0.081-0.405,0.28-0.778,0.572-1.07c0.292-0.292,0.664-0.491,1.07-0.572s0.825-0.039,1.207,0.119
			c0.382,0.158,0.708,0.426,0.938,0.77c0.23,0.344,0.352,0.748,0.352,1.161c-0.001,0.554-0.221,1.085-0.613,1.477
			C148.209,263.241,147.678,263.461,147.124,263.462z M147.124,259.979c-0.275,0-0.545,0.082-0.774,0.235
			c-0.229,0.153-0.408,0.371-0.513,0.625c-0.105,0.255-0.133,0.535-0.079,0.805s0.186,0.518,0.381,0.713
			c0.195,0.195,0.443,0.327,0.713,0.381c0.27,0.054,0.55,0.026,0.805-0.079c0.255-0.105,0.472-0.284,0.625-0.513
			c0.153-0.229,0.235-0.498,0.235-0.774c0-0.369-0.147-0.724-0.408-0.985C147.847,260.126,147.493,259.979,147.124,259.979z"/>
	</g>
	<g>
		<path fill="#989A9B" d="M135.651,259.636c-0.389,0.006-0.769,0.115-1.102,0.315c-0.333,0.2-0.608,0.484-0.796,0.825
			c-0.188-0.34-0.463-0.625-0.796-0.825c-0.333-0.2-0.714-0.309-1.102-0.315c-0.62,0.027-1.203,0.298-1.624,0.754
			c-0.42,0.456-0.643,1.06-0.62,1.68c0,2.339,3.782,5.04,3.943,5.155l0.2,0.141l0.2-0.141c0.161-0.114,3.943-2.816,3.943-5.155
			c0.023-0.62-0.199-1.224-0.62-1.68C136.854,259.934,136.27,259.663,135.651,259.636z M133.752,266.515
			c-1.123-0.839-3.452-2.9-3.452-4.446c-0.024-0.437,0.126-0.865,0.417-1.192c0.291-0.327,0.699-0.525,1.136-0.552
			c0.437,0.027,0.845,0.225,1.136,0.552c0.291,0.327,0.441,0.755,0.417,1.192h0.69c-0.024-0.437,0.126-0.865,0.417-1.192
			c0.291-0.327,0.699-0.525,1.136-0.552c0.437,0.027,0.845,0.225,1.136,0.552c0.291,0.327,0.441,0.755,0.417,1.192
			C137.204,263.616,134.875,265.676,133.752,266.515z"/>
	</g>
	<g>
		<path fill="#989A9B" d="M166.367,260.037h-7.518l-0.016-0.134c-0.033-0.278-0.166-0.534-0.375-0.719
			c-0.209-0.186-0.479-0.288-0.758-0.289h-0.465v0.761h0.465c0.093,0,0.183,0.034,0.253,0.096c0.07,0.062,0.114,0.147,0.125,0.24
			l0.603,5.125c0.033,0.278,0.166,0.534,0.375,0.719c0.209,0.186,0.479,0.288,0.758,0.289h5.031v-0.761h-5.031
			c-0.093,0-0.183-0.034-0.253-0.096c-0.07-0.062-0.114-0.147-0.125-0.24l-0.05-0.425h6.157L166.367,260.037z M164.907,263.842
			h-5.61l-0.358-3.044h6.518L164.907,263.842z"/>
		<path fill="#989A9B" d="M159.898,268.027c0.42,0,0.761-0.341,0.761-0.761c0-0.42-0.341-0.761-0.761-0.761
			s-0.761,0.341-0.761,0.761C159.137,267.687,159.478,268.027,159.898,268.027z"/>
		<path fill="#989A9B" d="M163.703,268.027c0.42,0,0.761-0.341,0.761-0.761c0-0.42-0.341-0.761-0.761-0.761
			c-0.42,0-0.761,0.341-0.761,0.761C162.942,267.687,163.283,268.027,163.703,268.027z"/>
	</g>
</g>
</svg>
