<?xml version="1.0" encoding="utf-8"?>
<!-- Generator: Adobe Illustrator 17.0.0, SVG Export Plug-In . SVG Version: 6.00 Build 0)  -->
<!DOCTYPE svg PUBLIC "-//W3C//DTD SVG 1.1//EN" "http://www.w3.org/Graphics/SVG/1.1/DTD/svg11.dtd">
<svg version="1.1" id="Layer_1" xmlns="http://www.w3.org/2000/svg" xmlns:xlink="http://www.w3.org/1999/xlink" x="0px" y="0px"
	 width="260px" height="80px" viewBox="309.573 4.219 260 80" enable-background="new 309.573 4.219 260 80" xml:space="preserve">
<path fill="#FFFFFF" d="M60.326,1026.107c0,1.657-1.343,3-3,3h-130c-1.657,0-3-1.343-3-3v-54c0-1.657,1.343-3,3-3h130
	c1.657,0,3,1.343,3,3V1026.107z"/>
<path fill="#FFFFFF" d="M69.747,440.833c0,1.657-1.343,3-3,3h-130c-1.657,0-3-1.343-3-3v-54c0-1.657,1.343-3,3-3h130
	c1.657,0,3,1.343,3,3V440.833z"/>
<path fill="#FFFFFF" d="M222.247,768.797c0,1.657-1.343,3-3,3h-130c-1.657,0-3-1.343-3-3v-54c0-1.657,1.343-3,3-3h130
	c1.657,0,3,1.343,3,3V768.797z"/>
<path fill="#FFFFFF" d="M189.535,81.164c0,1.687-1.344,3.055-3.001,3.055H-67.464c-1.657,0-3.001-1.368-3.001-3.055V7.274
	c0-1.687,1.344-3.055,3.001-3.055h253.998c1.657,0,3.001,1.368,3.001,3.055V81.164z"/>
<rect x="-65.356" y="24.673" opacity="0.3" fill="#AAACAD" enable-background="new    " width="250" height="0.5"/>
<rect x="-65.356" y="61.991" opacity="0.3" fill="#AAACAD" enable-background="new    " width="250" height="0.5"/>
<path fill="#AAAEB1" d="M189.5,271.5c0,1.657-1.343,3-3,3H-67.43c-1.657,0-3-1.343-3-3v-72.563c0-1.657,1.343-3,3-3H186.5
	c1.657,0,3,1.343,3,3V271.5z"/>
<g>
	<rect x="-70.5" y="251.93" opacity="0.3" fill="#FFFFFF" enable-background="new    " width="260.15" height="1.771"/>
	<rect x="-70.43" y="215.037" opacity="0.3" fill="#FFFFFF" enable-background="new    " width="260.149" height="1.771"/>
</g>
<path fill="#F2F2F2" d="M41.655,238.379h5.135v-1.398h-3.441v-6.622h-1.694L41.655,238.379z M57.177,234.369
	c0-2.625-1.63-4.12-3.757-4.12c-2.14,0-3.757,1.496-3.757,4.12c0,2.612,1.619,4.12,3.757,4.12
	C55.547,238.49,57.177,236.992,57.177,234.369z M55.457,234.369c0,1.698-0.805,2.621-2.036,2.621c-1.235,0-2.036-0.922-2.036-2.621
	s0.803-2.621,2.036-2.621c1.231,0,2.038,0.92,2.038,2.621H55.457z M65.957,232.951h1.725c-0.221-1.586-1.617-2.702-3.43-2.702
	c-2.12,0-3.752,1.526-3.752,4.127c0,2.537,1.526,4.114,3.787,4.114c2.023,0,3.47-1.279,3.47-3.393v-1.01h-3.357v1.277h1.723
	c-0.022,0.993-0.701,1.626-1.829,1.626c-1.273,0-2.073-0.953-2.073-2.629c0-1.668,0.832-2.612,2.058-2.612
	c0.874,0,1.465,0.45,1.681,1.202H65.957z M78.607,234.369c0-2.625-1.63-4.12-3.757-4.12c-2.14,0-3.757,1.496-3.757,4.12
	c0,2.612,1.619,4.12,3.757,4.12C76.977,238.49,78.607,236.992,78.607,234.369z M76.886,234.369c0,1.698-0.805,2.621-2.036,2.621
	c-1.235,0-2.036-0.922-2.036-2.621s0.803-2.621,2.036-2.621C76.081,231.749,76.886,232.668,76.886,234.369z"/>
<g>
	<rect x="-54.402" y="262.05" fill="#EAEAEA" width="14.37" height="4.412"/>
	<rect x="-36.204" y="262.05" fill="#EAEAEA" width="14.37" height="4.412"/>
	<rect x="-18.006" y="262.05" fill="#EAEAEA" width="14.37" height="4.412"/>
	<rect x="0.192" y="262.05" fill="#EAEAEA" width="14.37" height="4.412"/>
</g>
<rect x="-54.5" y="203.209" fill="#EAEAEA" width="38.602" height="4.412"/>
<rect x="134.752" y="203.209" fill="#EAEAEA" width="38.602" height="4.412"/>
<rect x="40.398" y="203.209" fill="#EAEAEA" width="38.602" height="4.412"/>
<path fill="#AAAEB1" d="M189.5,164.499c0,1.657-1.343,3-3,3H-67.43c-1.657,0-3-1.343-3-3v-49.561c0-1.657,1.343-3,3-3H186.5
	c1.657,0,3,1.343,3,3V164.499z"/>
<rect x="-70.43" y="131.037" opacity="0.3" fill="#FFFFFF" enable-background="new    " width="260.149" height="1.771"/>
<path fill="#F2F2F2" d="M-54.402,154.379h5.135v-1.398h-3.441v-6.622h-1.694L-54.402,154.379z M-38.879,150.369
	c0-2.625-1.63-4.12-3.757-4.12c-2.14,0-3.757,1.496-3.757,4.12c0,2.612,1.619,4.12,3.757,4.12
	C-40.51,154.49-38.879,152.992-38.879,150.369z M-40.6,150.369c0,1.698-0.805,2.621-2.036,2.621c-1.235,0-2.036-0.922-2.036-2.621
	s0.803-2.621,2.036-2.621c1.231,0,2.038,0.92,2.038,2.621H-40.6z M-30.1,148.951h1.725c-0.221-1.586-1.617-2.702-3.43-2.702
	c-2.12,0-3.752,1.526-3.752,4.127c0,2.537,1.526,4.114,3.787,4.114c2.023,0,3.47-1.279,3.47-3.393v-1.01h-3.357v1.277h1.723
	c-0.022,0.993-0.701,1.626-1.829,1.626c-1.273,0-2.073-0.953-2.073-2.629c0-1.668,0.832-2.612,2.058-2.612
	c0.874,0,1.465,0.45,1.681,1.202H-30.1z M-17.45,150.369c0-2.625-1.63-4.12-3.757-4.12c-2.14,0-3.757,1.496-3.757,4.12
	c0,2.612,1.619,4.12,3.757,4.12C-19.08,154.49-17.45,152.992-17.45,150.369z M-19.17,150.369c0,1.698-0.805,2.621-2.036,2.621
	c-1.235,0-2.036-0.922-2.036-2.621s0.803-2.621,2.036-2.621C-19.976,147.749-19.17,148.668-19.17,150.369z"/>
<rect x="151.5" y="147.7" fill="#E8EBEC" width="21.854" height="5.764"/>
<g>
	<rect x="25.563" y="148.377" fill="#EAEAEA" width="14.37" height="4.412"/>
	<rect x="43.761" y="148.377" fill="#EAEAEA" width="14.37" height="4.412"/>
	<rect x="61.959" y="148.377" fill="#EAEAEA" width="14.37" height="4.412"/>
	<rect x="80.157" y="148.377" fill="#EAEAEA" width="14.37" height="4.412"/>
</g>
<rect x="-54.5" y="119.209" fill="#EAEAEA" width="38.602" height="4.412"/>
<rect x="134.752" y="119.209" fill="#EAEAEA" width="38.602" height="4.412"/>
<rect x="40.398" y="119.209" fill="#EAEAEA" width="38.602" height="4.412"/>
<path fill="#FFFFFF" d="M113.655,154.486l-2.531-2.352c0.461-0.569,0.748-1.282,0.748-2.069c0-1.824-1.484-3.309-3.309-3.309
	s-3.309,1.484-3.309,3.309s1.484,3.309,3.309,3.309c0.839,0,1.597-0.324,2.18-0.84l2.535,2.356L113.655,154.486z M105.806,150.064
	c0-1.521,1.237-2.758,2.758-2.758s2.758,1.237,2.758,2.758s-1.237,2.758-2.758,2.758S105.806,151.585,105.806,150.064z"/>
<rect x="119.583" y="147.362" fill="#FFFFFF" width="9.167" height="0.676"/>
<rect x="119.583" y="149.906" fill="#FFFFFF" width="9.167" height="0.676"/>
<rect x="119.583" y="152.314" fill="#FFFFFF" width="9.167" height="0.676"/>
<path fill="#FFFFFF" d="M155.067,266.697l-2.104-1.955c0.383-0.473,0.622-1.066,0.622-1.72c0-1.517-1.234-2.751-2.751-2.751
	c-1.517,0-2.751,1.234-2.751,2.751c0,1.517,1.234,2.751,2.751,2.751c0.697,0,1.327-0.269,1.813-0.698l2.108,1.959L155.067,266.697z
	 M148.542,263.022c0-1.264,1.029-2.293,2.293-2.293c1.264,0,2.293,1.029,2.293,2.293c0,1.264-1.029,2.293-2.293,2.293
	C149.571,265.314,148.542,264.286,148.542,263.022z"/>
<rect x="162.412" y="260.506" fill="#FFFFFF" width="9.167" height="0.676"/>
<rect x="162.412" y="263.05" fill="#FFFFFF" width="9.167" height="0.676"/>
<rect x="162.412" y="265.457" fill="#5D5D5D" width="9.167" height="0.676"/>
<g enable-background="new    ">
	<rect x="17.929" y="37.273" fill="#ECEDEE" width="86.571" height="12.618"/>
	<g>
		<rect x="-54.402" y="71.05" fill="#ECEDEE" width="14.37" height="4.412"/>
		<rect x="-36.204" y="71.05" fill="#ECEDEE" width="14.37" height="4.412"/>
		<rect x="-18.006" y="71.05" fill="#ECEDEE" width="14.37" height="4.412"/>
		<rect x="0.192" y="71.05" fill="#ECEDEE" width="14.37" height="4.412"/>
	</g>
	<rect x="-54.5" y="12.209" fill="#ECEDEE" width="38.602" height="4.412"/>
	<rect x="134.752" y="12.209" fill="#ECEDEE" width="38.602" height="4.412"/>
	<rect x="40.398" y="12.209" fill="#ECEDEE" width="38.602" height="4.412"/>
</g>
<path fill="#989A9B" d="M-54.402,47.379h5.135v-1.398h-3.441v-6.622h-1.694L-54.402,47.379z M-38.879,43.369
	c0-2.625-1.63-4.12-3.757-4.12c-2.14,0-3.757,1.496-3.757,4.12c0,2.612,1.619,4.12,3.757,4.12
	C-40.51,47.49-38.879,45.992-38.879,43.369z M-40.6,43.369c0,1.698-0.805,2.621-2.036,2.621c-1.235,0-2.036-0.922-2.036-2.621
	s0.803-2.621,2.036-2.621c1.231,0,2.038,0.92,2.038,2.621H-40.6z M-30.1,41.951h1.725c-0.221-1.586-1.617-2.702-3.43-2.702
	c-2.12,0-3.752,1.526-3.752,4.127c0,2.537,1.526,4.114,3.787,4.114c2.023,0,3.47-1.279,3.47-3.393v-1.01h-3.357v1.277h1.723
	c-0.022,0.993-0.701,1.626-1.829,1.626c-1.273,0-2.073-0.953-2.073-2.629c0-1.668,0.832-2.612,2.058-2.612
	c0.874,0,1.465,0.45,1.681,1.202L-30.1,41.951z M-17.45,43.369c0-2.625-1.63-4.12-3.757-4.12c-2.14,0-3.757,1.496-3.757,4.12
	c0,2.612,1.619,4.12,3.757,4.12C-19.08,47.49-17.45,45.992-17.45,43.369z M-19.17,43.369c0,1.698-0.805,2.621-2.036,2.621
	c-1.235,0-2.036-0.922-2.036-2.621s0.803-2.621,2.036-2.621C-19.976,40.749-19.17,41.668-19.17,43.369z"/>
<path fill="#989A9B" d="M170.302,76.584l-2.378-2.211c0.399-0.572,0.637-1.265,0.637-2.014c0-1.948-1.585-3.533-3.533-3.533
	s-3.533,1.585-3.533,3.533s1.585,3.533,3.533,3.533c0.806,0,1.541-0.282,2.136-0.738l2.397,2.227L170.302,76.584z M162.494,72.359
	c0-1.396,1.137-2.533,2.533-2.533s2.533,1.137,2.533,2.533s-1.137,2.533-2.533,2.533S162.494,73.756,162.494,72.359z"/>
<g>
	<path fill="#989A9B" d="M130.801,44.749l-1.676,0.497l0.167,0.568l0.682-0.213c-0.718,1.04-1.935,1.62-3.195,1.523l0,0
		c-0.107-0.007-0.214-0.02-0.32-0.039l0,0l-0.277-0.06l-0.114-0.021l-0.199-0.06l-0.135-0.064l-0.131-0.053l-0.209-0.103
		c-1.083-0.555-1.803-1.628-1.907-2.84l-0.582,0.05c0.115,1.396,0.929,2.638,2.162,3.302l0,0c0.107,0.057,0.217,0.11,0.33,0.16
		h0.039c0.099,0.043,0.202,0.078,0.305,0.114l0.071,0.025l0.266,0.067l0.114,0.028c0.067,0,0.138,0.021,0.209,0.032l0.174,0.028l0,0
		c1.551,0.16,3.06-0.564,3.905-1.875l0.224,0.763l0.561-0.163L130.801,44.749z"/>
	<path fill="#989A9B" d="M123.345,42.235l1.697-0.415l-0.138-0.564l-0.678,0.167c0.768-1.002,2.01-1.521,3.263-1.363l0,0
		c0.106,0.013,0.212,0.032,0.316,0.057l0,0l0.273,0.071l0.075,0.025l0.199,0.071l0.142,0.06l0.128,0.06
		c0.067,0.036,0.138,0.071,0.206,0.114c1.055,0.608,1.725,1.713,1.775,2.929l0.582-0.021c-0.051-1.391-0.8-2.662-1.992-3.38l0,0l0,0
		c-0.103-0.064-0.21-0.122-0.32-0.174l-0.039-0.018c-0.097-0.045-0.196-0.088-0.298-0.128l-0.071-0.025
		c-0.085-0.032-0.174-0.06-0.263-0.085l-0.11-0.032l-0.206-0.046c-0.06,0-0.117-0.025-0.178-0.032h-0.018
		c-1.543-0.244-3.092,0.401-4.005,1.669l-0.188-0.774l-0.564,0.138L123.345,42.235z"/>
</g>
<g>
	<path fill="#989A9B" d="M156.863,47.761h-0.696v-1.756c0-0.273-0.109-0.535-0.302-0.728c-0.193-0.193-0.455-0.302-0.728-0.302
		h-2.816c-0.273,0-0.535,0.109-0.728,0.302c-0.193,0.193-0.302,0.455-0.302,0.728v1.756h-0.696v-1.756
		c0.001-0.458,0.183-0.896,0.506-1.22c0.324-0.324,0.762-0.506,1.22-0.506h2.816c0.458,0.001,0.896,0.183,1.22,0.506
		c0.324,0.324,0.506,0.762,0.506,1.22V47.761z"/>
	<path fill="#989A9B" d="M153.729,43.582c-0.413,0-0.817-0.123-1.161-0.352c-0.344-0.23-0.611-0.556-0.77-0.938
		c-0.158-0.382-0.2-0.802-0.119-1.207c0.081-0.405,0.28-0.778,0.572-1.07s0.664-0.491,1.07-0.572
		c0.405-0.081,0.825-0.039,1.207,0.119c0.382,0.158,0.708,0.426,0.938,0.77c0.23,0.344,0.352,0.748,0.352,1.161
		c-0.001,0.554-0.221,1.085-0.613,1.477C154.814,43.362,154.283,43.582,153.729,43.582z M153.729,40.1
		c-0.275,0-0.545,0.082-0.774,0.235s-0.408,0.371-0.513,0.625s-0.133,0.535-0.079,0.805c0.054,0.27,0.186,0.518,0.381,0.713
		s0.443,0.327,0.713,0.381c0.27,0.054,0.55,0.026,0.805-0.079c0.255-0.105,0.472-0.284,0.625-0.513
		c0.153-0.229,0.235-0.498,0.235-0.774c0-0.369-0.147-0.724-0.408-0.985C154.452,40.247,154.098,40.1,153.729,40.1z"/>
</g>
<g>
	<path fill="#989A9B" d="M142.256,39.757c-0.389,0.006-0.769,0.115-1.102,0.315c-0.333,0.2-0.608,0.484-0.796,0.825
		c-0.188-0.34-0.463-0.625-0.796-0.825c-0.333-0.2-0.714-0.309-1.102-0.315c-0.62,0.027-1.203,0.298-1.624,0.754
		c-0.42,0.456-0.643,1.06-0.62,1.68c0,2.339,3.782,5.04,3.943,5.155l0.2,0.141l0.2-0.141c0.161-0.114,3.943-2.816,3.943-5.155
		c0.023-0.62-0.199-1.224-0.62-1.68C143.459,40.055,142.875,39.783,142.256,39.757z M140.357,46.636
		c-1.123-0.839-3.452-2.9-3.452-4.446c-0.024-0.437,0.126-0.865,0.417-1.192s0.699-0.525,1.136-0.552
		c0.437,0.027,0.845,0.225,1.136,0.552c0.291,0.327,0.441,0.755,0.417,1.192h0.69c-0.024-0.437,0.126-0.865,0.417-1.192
		c0.291-0.327,0.699-0.525,1.136-0.552c0.437,0.027,0.845,0.225,1.136,0.552c0.291,0.327,0.441,0.755,0.417,1.192
		C143.809,43.737,141.48,45.797,140.357,46.636z"/>
</g>
<g>
	<path fill="#989A9B" d="M172.972,40.158h-7.518l-0.016-0.134c-0.033-0.278-0.166-0.534-0.375-0.719
		c-0.209-0.186-0.479-0.288-0.758-0.289h-0.465v0.761h0.465c0.093,0,0.183,0.034,0.253,0.096c0.07,0.062,0.114,0.147,0.125,0.24
		l0.603,5.125c0.033,0.278,0.166,0.534,0.375,0.719c0.209,0.186,0.479,0.288,0.758,0.289h5.031v-0.761h-5.031
		c-0.093,0-0.183-0.034-0.253-0.096c-0.07-0.062-0.114-0.147-0.125-0.24l-0.05-0.425h6.157L172.972,40.158z M171.512,43.963h-5.61
		l-0.358-3.044h6.518L171.512,43.963z"/>
	<path fill="#989A9B" d="M166.503,48.148c0.42,0,0.761-0.341,0.761-0.761c0-0.42-0.341-0.761-0.761-0.761s-0.761,0.341-0.761,0.761
		C165.742,47.808,166.083,48.148,166.503,48.148z"/>
	<path fill="#989A9B" d="M170.308,48.148c0.42,0,0.761-0.341,0.761-0.761c0-0.42-0.341-0.761-0.761-0.761
		c-0.42,0-0.761,0.341-0.761,0.761C169.547,47.808,169.888,48.148,170.308,48.148z"/>
</g>
<g>
	<path fill="#989A9B" d="M4.758,236.36H-2.76l-0.016-0.134c-0.033-0.278-0.166-0.534-0.375-0.719
		c-0.209-0.186-0.479-0.288-0.758-0.289h-0.465v0.761h0.465c0.093,0,0.183,0.034,0.253,0.096c0.07,0.062,0.114,0.147,0.125,0.24
		l0.603,5.125c0.033,0.278,0.166,0.534,0.375,0.719c0.209,0.186,0.479,0.288,0.758,0.289h5.031v-0.761h-5.031
		c-0.093,0-0.183-0.034-0.253-0.096c-0.07-0.062-0.114-0.147-0.125-0.24l-0.05-0.425h6.157L4.758,236.36z M3.299,240.165h-5.61
		l-0.358-3.044h6.518L3.299,240.165z"/>
	<path fill="#989A9B" d="M-1.71,244.351c0.42,0,0.761-0.341,0.761-0.761s-0.341-0.761-0.761-0.761s-0.761,0.341-0.761,0.761
		S-2.13,244.351-1.71,244.351z"/>
	<path fill="#989A9B" d="M2.095,244.351c0.42,0,0.761-0.341,0.761-0.761s-0.341-0.761-0.761-0.761c-0.42,0-0.761,0.341-0.761,0.761
		S1.675,244.351,2.095,244.351z"/>
</g>
<g>
	<path fill="#FFFFFF" d="M112.265,263.973l-1.151,0.341l0.115,0.39l0.468-0.146c-0.493,0.715-1.329,1.113-2.195,1.046l0,0
		c-0.074-0.005-0.147-0.014-0.219-0.027l0,0l-0.19-0.041l-0.078-0.015l-0.137-0.041l-0.093-0.044l-0.09-0.037l-0.144-0.071
		c-0.744-0.381-1.238-1.118-1.309-1.951l-0.4,0.034c0.079,0.959,0.638,1.812,1.485,2.268l0,0c0.073,0.039,0.149,0.076,0.227,0.11
		h0.027c0.068,0.029,0.139,0.054,0.21,0.078l0.049,0.017l0.183,0.046l0.078,0.02c0.046,0,0.095,0.015,0.144,0.022l0.119,0.02l0,0
		c1.065,0.11,2.102-0.387,2.682-1.288l0.154,0.524l0.385-0.112L112.265,263.973z"/>
	<path fill="#FFFFFF" d="M107.144,262.247l1.166-0.285l-0.095-0.388l-0.466,0.115c0.527-0.688,1.381-1.045,2.241-0.936l0,0
		c0.073,0.009,0.145,0.022,0.217,0.039l0,0l0.188,0.049l0.051,0.017l0.137,0.049l0.098,0.041l0.088,0.041
		c0.046,0.024,0.095,0.049,0.141,0.078c0.724,0.417,1.185,1.176,1.219,2.012l0.4-0.015c-0.035-0.955-0.549-1.828-1.368-2.321l0,0
		l0,0c-0.071-0.044-0.144-0.084-0.219-0.119l-0.027-0.012c-0.067-0.031-0.135-0.06-0.205-0.088l-0.049-0.017
		c-0.059-0.022-0.119-0.041-0.18-0.059l-0.076-0.022l-0.141-0.032c-0.041,0-0.08-0.017-0.122-0.022h-0.012
		c-1.06-0.168-2.123,0.276-2.751,1.146l-0.129-0.532l-0.388,0.095L107.144,262.247z"/>
</g>
<g>
	<g>
		<defs>
			<rect id="SVGID_1_" x="125.142" y="260.302" width="5.74" height="5.74"/>
		</defs>
		<clipPath id="SVGID_2_">
			<use xlink:href="#SVGID_1_"  overflow="visible"/>
		</clipPath>
		<g clip-path="url(#SVGID_2_)">
			<path fill="#FFFFFF" d="M130.165,266.042h-0.478v-1.206c0-0.188-0.075-0.367-0.207-0.5s-0.312-0.207-0.5-0.207h-1.934
				c-0.188,0-0.367,0.075-0.5,0.207c-0.133,0.133-0.207,0.312-0.207,0.5v1.206h-0.478v-1.206c0-0.314,0.125-0.616,0.348-0.838
				c0.222-0.222,0.524-0.347,0.838-0.348h1.934c0.314,0,0.616,0.125,0.838,0.348c0.222,0.222,0.347,0.524,0.348,0.838V266.042z"/>
			<path fill="#FFFFFF" d="M128.012,263.172c-0.284,0-0.561-0.084-0.797-0.242c-0.236-0.158-0.42-0.382-0.529-0.644
				s-0.137-0.551-0.082-0.829c0.055-0.278,0.192-0.534,0.393-0.735s0.456-0.337,0.735-0.393c0.278-0.055,0.567-0.027,0.829,0.082
				c0.262,0.109,0.486,0.293,0.644,0.529c0.158,0.236,0.242,0.513,0.242,0.797c0,0.38-0.152,0.745-0.421,1.014
				C128.758,263.021,128.393,263.172,128.012,263.172z M128.012,260.781c-0.189,0-0.374,0.056-0.531,0.161
				c-0.157,0.105-0.28,0.255-0.352,0.429c-0.072,0.175-0.091,0.367-0.054,0.553s0.128,0.356,0.262,0.49s0.304,0.225,0.49,0.262
				c0.186,0.037,0.378,0.018,0.553-0.054c0.175-0.072,0.324-0.195,0.429-0.352c0.105-0.157,0.161-0.342,0.161-0.531
				c0-0.254-0.101-0.497-0.28-0.676C128.509,260.881,128.266,260.781,128.012,260.781z"/>
		</g>
	</g>
</g>
<g>
	<defs>
		<rect id="SVGID_3_" x="115.983" y="260.327" width="5.927" height="5.69"/>
	</defs>
	<clipPath id="SVGID_4_">
		<use xlink:href="#SVGID_3_"  overflow="visible"/>
	</clipPath>
	<g clip-path="url(#SVGID_4_)">
		<path fill="#FFFFFF" d="M120.132,260.545c-0.267,0.004-0.528,0.079-0.757,0.216c-0.229,0.137-0.418,0.333-0.547,0.566
			c-0.129-0.234-0.318-0.429-0.547-0.566c-0.229-0.137-0.49-0.212-0.757-0.216c-0.426,0.018-0.827,0.205-1.115,0.518
			c-0.289,0.313-0.442,0.728-0.426,1.154c0,1.606,2.598,3.462,2.708,3.54l0.137,0.097l0.137-0.097
			c0.11-0.078,2.708-1.934,2.708-3.54c0.016-0.426-0.137-0.84-0.426-1.154C120.959,260.749,120.558,260.563,120.132,260.545z
			 M118.828,265.27c-0.771-0.576-2.371-1.992-2.371-3.054c-0.016-0.3,0.087-0.594,0.287-0.819c0.2-0.224,0.48-0.36,0.78-0.379
			c0.3,0.018,0.58,0.155,0.78,0.379c0.2,0.224,0.303,0.519,0.287,0.819h0.474c-0.016-0.3,0.087-0.594,0.287-0.819
			c0.2-0.224,0.48-0.36,0.78-0.379c0.3,0.018,0.58,0.155,0.78,0.379c0.2,0.224,0.303,0.519,0.287,0.819
			C121.199,263.279,119.6,264.693,118.828,265.27z"/>
	</g>
</g>
<g>
	<g>
		<defs>
			<rect id="SVGID_5_" x="134.957" y="260.036" width="6.533" height="6.272"/>
		</defs>
		<clipPath id="SVGID_6_">
			<use xlink:href="#SVGID_5_"  overflow="visible"/>
		</clipPath>
		<g clip-path="url(#SVGID_6_)">
			<path fill="#FFFFFF" d="M141.229,260.82h-5.163l-0.011-0.092c-0.022-0.191-0.114-0.366-0.258-0.494
				c-0.143-0.128-0.329-0.198-0.521-0.198h-0.319v0.523h0.319c0.064,0,0.126,0.023,0.174,0.066s0.078,0.101,0.086,0.165l0.414,3.52
				c0.022,0.191,0.114,0.366,0.258,0.494c0.143,0.128,0.329,0.198,0.521,0.198h3.455v-0.523h-3.455
				c-0.064,0-0.126-0.024-0.174-0.066c-0.048-0.043-0.078-0.101-0.086-0.165l-0.034-0.292h4.229L141.229,260.82z M140.226,263.434
				h-3.853l-0.246-2.091h4.476L140.226,263.434z"/>
			<path fill="#FFFFFF" d="M136.786,266.308c0.289,0,0.523-0.234,0.523-0.523s-0.234-0.523-0.523-0.523
				c-0.289,0-0.523,0.234-0.523,0.523S136.498,266.308,136.786,266.308z"/>
			<path fill="#FFFFFF" d="M139.4,266.308c0.289,0,0.523-0.234,0.523-0.523s-0.234-0.523-0.523-0.523
				c-0.289,0-0.523,0.234-0.523,0.523S139.111,266.308,139.4,266.308z"/>
		</g>
	</g>
</g>
<g>
	<g>
		<defs>
			<rect id="SVGID_7_" x="136.337" y="146.593" width="6.902" height="6.626"/>
		</defs>
		<clipPath id="SVGID_8_">
			<use xlink:href="#SVGID_7_"  overflow="visible"/>
		</clipPath>
		<g clip-path="url(#SVGID_8_)">
			<path fill="#FFFFFF" d="M142.963,147.422h-5.455l-0.012-0.097c-0.024-0.201-0.121-0.387-0.272-0.522
				c-0.152-0.135-0.347-0.209-0.55-0.209h-0.337v0.552h0.337c0.068,0,0.133,0.025,0.183,0.07c0.051,0.045,0.083,0.107,0.091,0.174
				l0.438,3.718c0.024,0.201,0.121,0.387,0.272,0.522c0.152,0.135,0.347,0.209,0.55,0.209h3.65v-0.552h-3.65
				c-0.068,0-0.133-0.025-0.183-0.07c-0.051-0.045-0.083-0.107-0.091-0.174l-0.036-0.308h4.467L142.963,147.422z M141.904,150.182
				h-4.071l-0.26-2.209h4.729L141.904,150.182z"/>
			<path fill="#FFFFFF" d="M138.27,153.219c0.305,0,0.552-0.247,0.552-0.552s-0.247-0.552-0.552-0.552
				c-0.305,0-0.552,0.247-0.552,0.552S137.965,153.219,138.27,153.219z"/>
			<path fill="#FFFFFF" d="M141.03,153.219c0.305,0,0.552-0.247,0.552-0.552s-0.247-0.552-0.552-0.552
				c-0.305,0-0.552,0.247-0.552,0.552S140.726,153.219,141.03,153.219z"/>
		</g>
	</g>
</g>
<rect x="-66.253" y="383.833" fill="#ECEDEE" width="136" height="31.57"/>
<rect x="-30.202" y="424.483" fill="#ECEDEE" width="58.845" height="2.712"/>
<rect x="-11.852" y="432.121" fill="#ECEDEE" width="22.146" height="2.712"/>
<rect x="94.119" y="720.161" fill="#ECEDEE" width="120.256" height="24.278"/>
<rect x="94.119" y="752.519" fill="#ECEDEE" width="50.006" height="2.712"/>
<rect x="161.161" y="752.519" fill="#ECEDEE" width="53.214" height="2.712"/>
<path fill="#FFFFFF" d="M371.497,440.885c0,1.657-1.343,3-3,3h-130c-1.657,0-3-1.343-3-3v-54c0-1.657,1.343-3,3-3h130
	c1.657,0,3,1.343,3,3V440.885z"/>
<g>
	<rect x="243.369" y="391.073" fill="#ECEDEE" width="120.256" height="20.375"/>
	<rect x="271.548" y="418.506" fill="#ECEDEE" width="58.845" height="2.712"/>
	<rect x="289.898" y="426.144" fill="#ECEDEE" width="22.146" height="2.712"/>
	<rect x="243.369" y="391.073" fill="none" stroke="#ECEDEE" stroke-miterlimit="10" width="120.256" height="45.625"/>
</g>
<path fill="#FFFFFF" d="M222.247,520.964c0,1.657-1.343,3-3,3h-130c-1.657,0-3-1.343-3-3v-54c0-1.657,1.343-3,3-3h130
	c1.657,0,3,1.343,3,3V520.964z"/>
<g>
	<rect x="94.119" y="472.328" fill="#ECEDEE" width="120.256" height="24.278"/>
	<rect x="122.298" y="505.311" fill="#ECEDEE" width="58.845" height="2.712"/>
	<rect x="140.648" y="512.887" fill="#ECEDEE" width="22.146" height="2.712"/>
</g>
<g>
	<rect x="187.979" y="476.708" fill="#FCFCFC" width="22.042" height="8.125"/>
	<g>
		<path fill="#141414" d="M193.837,481.197l0.563-0.055c0.033,0.188,0.103,0.327,0.206,0.416s0.243,0.133,0.419,0.133
			c0.186,0,0.326-0.039,0.421-0.118c0.094-0.079,0.142-0.171,0.142-0.276c0-0.067-0.021-0.125-0.06-0.173
			c-0.04-0.048-0.109-0.089-0.208-0.124c-0.068-0.023-0.223-0.065-0.463-0.125c-0.311-0.077-0.527-0.171-0.652-0.283
			c-0.176-0.157-0.264-0.35-0.264-0.576c0-0.146,0.041-0.282,0.124-0.409c0.082-0.127,0.201-0.224,0.357-0.29
			c0.155-0.066,0.343-0.1,0.563-0.1c0.359,0,0.63,0.079,0.812,0.236s0.276,0.368,0.286,0.631l-0.578,0.025
			c-0.025-0.147-0.078-0.253-0.159-0.317c-0.082-0.064-0.204-0.097-0.366-0.097c-0.168,0-0.3,0.034-0.395,0.104
			c-0.062,0.044-0.092,0.104-0.092,0.178c0,0.067,0.028,0.126,0.086,0.174c0.072,0.062,0.25,0.125,0.531,0.191
			s0.489,0.135,0.624,0.206s0.24,0.168,0.316,0.291s0.114,0.275,0.114,0.456c0,0.164-0.046,0.317-0.137,0.461
			c-0.092,0.144-0.221,0.25-0.387,0.319c-0.167,0.069-0.375,0.104-0.623,0.104c-0.362,0-0.641-0.084-0.834-0.251
			C193.991,481.762,193.875,481.518,193.837,481.197z"/>
		<path fill="#141414" d="M197.858,480.688l-0.498-0.09c0.056-0.2,0.152-0.349,0.289-0.445s0.34-0.145,0.609-0.145
			c0.244,0,0.427,0.029,0.547,0.087c0.119,0.058,0.204,0.132,0.253,0.221s0.073,0.253,0.073,0.491l-0.006,0.641
			c0,0.183,0.009,0.316,0.026,0.403s0.05,0.18,0.099,0.278h-0.543c-0.015-0.036-0.032-0.091-0.053-0.162
			c-0.01-0.032-0.016-0.054-0.02-0.064c-0.094,0.091-0.194,0.159-0.301,0.205c-0.107,0.046-0.221,0.068-0.342,0.068
			c-0.214,0-0.382-0.058-0.505-0.174s-0.185-0.263-0.185-0.439c0-0.117,0.027-0.222,0.084-0.313
			c0.056-0.092,0.134-0.162,0.235-0.211c0.101-0.049,0.246-0.092,0.437-0.128c0.256-0.048,0.434-0.093,0.533-0.135v-0.055
			c0-0.105-0.026-0.181-0.078-0.226c-0.053-0.045-0.15-0.067-0.295-0.067c-0.098,0-0.174,0.02-0.229,0.058
			S197.891,480.591,197.858,480.688z M198.592,481.133c-0.07,0.023-0.182,0.052-0.334,0.084s-0.252,0.064-0.299,0.096
			c-0.072,0.051-0.107,0.115-0.107,0.193c0,0.077,0.028,0.144,0.086,0.199c0.057,0.056,0.13,0.084,0.219,0.084
			c0.099,0,0.193-0.032,0.283-0.098c0.066-0.05,0.109-0.11,0.131-0.182c0.014-0.047,0.021-0.136,0.021-0.268V481.133z"/>
		<path fill="#141414" d="M200.472,482.129v-2.863h0.549v2.863H200.472z"/>
		<path fill="#141414" d="M203.585,481.469l0.548,0.092c-0.07,0.2-0.182,0.354-0.334,0.458c-0.151,0.104-0.341,0.157-0.569,0.157
			c-0.36,0-0.627-0.118-0.801-0.354c-0.137-0.188-0.205-0.427-0.205-0.715c0-0.344,0.09-0.613,0.27-0.808s0.407-0.292,0.682-0.292
			c0.309,0,0.553,0.102,0.731,0.306c0.178,0.204,0.264,0.516,0.256,0.937h-1.376c0.004,0.163,0.049,0.289,0.133,0.38
			c0.085,0.091,0.19,0.136,0.316,0.136c0.086,0,0.158-0.023,0.217-0.07S203.555,481.573,203.585,481.469z M203.616,480.914
			c-0.004-0.159-0.045-0.279-0.123-0.362s-0.173-0.124-0.285-0.124c-0.119,0-0.219,0.044-0.297,0.131s-0.116,0.206-0.115,0.355
			H203.616z"/>
	</g>
</g>
<path fill="#FFFFFF" d="M222.247,846.464c0,1.657-1.343,3-3,3h-130c-1.657,0-3-1.343-3-3v-54c0-1.657,1.343-3,3-3h130
	c1.657,0,3,1.343,3,3V846.464z"/>
<g>
	<rect x="94.119" y="797.828" fill="#ECEDEE" width="120.256" height="24.278"/>
	<rect x="122.298" y="830.811" fill="#ECEDEE" width="58.845" height="2.712"/>
	<rect x="140.648" y="838.387" fill="#ECEDEE" width="22.146" height="2.712"/>
</g>
<path fill="#FFFFFF" d="M58.247,846.464c0,1.657-1.343,3-3,3h-130c-1.657,0-3-1.343-3-3v-54c0-1.657,1.343-3,3-3h130
	c1.657,0,3,1.343,3,3V846.464z"/>
<rect x="-69.881" y="797.828" fill="#ECEDEE" width="120.256" height="24.278"/>
<rect x="-41.702" y="830.811" fill="#ECEDEE" width="58.845" height="2.712"/>
<rect x="-23.352" y="838.387" fill="#ECEDEE" width="22.146" height="2.712"/>
<rect x="-75.674" y="978.25" fill="#ECEDEE" width="136" height="41.807"/>
<rect x="-18.747" y="998.454" fill="#FFFFFF" width="22.146" height="2.712"/>
<rect x="-37.096" y="989.788" fill="#FFFFFF" width="58.845" height="2.712"/>
<path fill="#FFFFFF" d="M396.747,846.464c0,1.657-1.343,3-3,3h-130c-1.657,0-3-1.343-3-3v-54c0-1.657,1.343-3,3-3h130
	c1.657,0,3,1.343,3,3V846.464z"/>
<rect x="268.619" y="797.828" fill="#ECEDEE" width="120.256" height="24.278"/>
<rect x="297.105" y="827.811" fill="#ECEDEE" width="58.845" height="2.712"/>
<path fill="#FFFFFF" d="M222.247,606.964c0,1.657-1.343,3-3,3h-130c-1.657,0-3-1.343-3-3v-54c0-1.657,1.343-3,3-3h130
	c1.657,0,3,1.343,3,3V606.964z"/>
<g>
	<rect x="94.119" y="558.328" fill="#ECEDEE" width="120.256" height="24.278"/>
	<rect x="122.298" y="591.311" fill="#ECEDEE" width="58.845" height="2.712"/>
	<rect x="140.648" y="598.887" fill="#ECEDEE" width="22.146" height="2.712"/>
</g>
<path fill="#FFFFFF" d="M222.247,689.297c0,1.657-1.343,3-3,3h-130c-1.657,0-3-1.343-3-3v-54c0-1.657,1.343-3,3-3h130
	c1.657,0,3,1.343,3,3V689.297z"/>
<rect x="94.119" y="640.661" fill="#ECEDEE" width="45.548" height="43.271"/>
<rect x="146.631" y="644.144" fill="#ECEDEE" width="58.845" height="2.712"/>
<rect x="146.631" y="654.621" fill="#ECEDEE" width="22.146" height="2.712"/>
<rect x="309.917" y="834.583" fill="#ECEDEE" width="38.583" height="10.25"/>
<path fill="#FFFFFF" d="M561.08,846.464c0,1.657-1.343,3-3,3h-130c-1.657,0-3-1.343-3-3v-54c0-1.657,1.343-3,3-3h130
	c1.657,0,3,1.343,3,3V846.464z"/>
<rect x="432.952" y="797.828" fill="#ECEDEE" width="120.256" height="24.278"/>
<rect x="461.438" y="827.811" fill="#ECEDEE" width="58.845" height="2.712"/>
<rect x="475.091" y="843.146" fill="#ECEDEE" width="29.625" height="1.5"/>
<rect x="-67" y="809.967" fill="#FFFFFF" width="11.25" height="9.616"/>
<g>
	<path fill="#989A9B" d="M-58.351,812.33h-4.98l-0.011-0.088c-0.022-0.184-0.11-0.353-0.248-0.477
		c-0.138-0.123-0.317-0.191-0.502-0.191h-0.308v0.504h0.308c0.062,0,0.121,0.023,0.167,0.064c0.046,0.041,0.076,0.098,0.083,0.159
		l0.399,3.394c0.022,0.184,0.11,0.353,0.248,0.476s0.317,0.191,0.502,0.191h3.332v-0.504h-3.332c-0.062,0-0.121-0.023-0.168-0.064
		c-0.046-0.041-0.076-0.098-0.083-0.159l-0.033-0.281h4.078L-58.351,812.33z M-59.317,814.85h-3.716l-0.237-2.016h4.317
		L-59.317,814.85z"/>
	<path fill="#989A9B" d="M-62.635,817.623c0.278,0,0.504-0.226,0.504-0.504s-0.226-0.504-0.504-0.504
		c-0.278,0-0.504,0.226-0.504,0.504S-62.914,817.623-62.635,817.623z"/>
	<path fill="#989A9B" d="M-60.115,817.623c0.278,0,0.504-0.226,0.504-0.504s-0.226-0.504-0.504-0.504
		c-0.278,0-0.504,0.226-0.504,0.504S-60.393,817.623-60.115,817.623z"/>
</g>
<path fill="#FFFFFF" d="M222.247,932.964c0,1.657-1.343,3-3,3h-130c-1.657,0-3-1.343-3-3v-54c0-1.657,1.343-3,3-3h130
	c1.657,0,3,1.343,3,3V932.964z"/>
<g>
	<rect x="97.07" y="888.017" fill="#ECEDEE" width="120.256" height="24.278"/>
	<rect x="125.249" y="921" fill="#ECEDEE" width="58.845" height="2.712"/>
	<rect x="143.599" y="928.576" fill="#ECEDEE" width="22.146" height="2.712"/>
</g>
<path fill="#FFFFFF" d="M532.747,932.964c0,1.657-1.343,3-3,3h-130c-1.657,0-3-1.343-3-3v-54c0-1.657,1.343-3,3-3h130
	c1.657,0,3,1.343,3,3V932.964z"/>
<rect x="404.619" y="884.328" fill="#ECEDEE" width="120.256" height="24.278"/>
<rect x="432.798" y="917.311" fill="#ECEDEE" width="58.845" height="2.712"/>
<rect x="451.148" y="924.887" fill="#ECEDEE" width="22.146" height="2.712"/>
<g>
	<circle fill="#FFFFFF" cx="517.86" cy="890.417" r="3.988"/>
	<circle fill="#ECEDEE" cx="517.86" cy="890.417" r="1.994"/>
</g>
<g>
	<circle fill="#FFFFFF" cx="518.063" cy="901.188" r="3.988"/>
	<circle fill="#ECEDEE" cx="518.063" cy="901.188" r="1.994"/>
</g>
<g>
	<rect x="136.246" y="891.716" fill="#FFFFFF" width="36.002" height="9.732"/>
	<circle fill="#ECEDEE" cx="144.289" cy="896.582" r="3"/>
	<circle fill="#ECEDEE" cx="154.247" cy="896.467" r="3"/>
	<circle fill="#ECEDEE" cx="164.205" cy="896.582" r="3"/>
</g>
<path fill="#FFFFFF" d="M376.247,932.964c0,1.657-1.343,3-3,3h-130c-1.657,0-3-1.343-3-3v-54c0-1.657,1.343-3,3-3h130
	c1.657,0,3,1.343,3,3V932.964z"/>
<g>
	<rect x="248.119" y="884.328" fill="#ECEDEE" width="120.256" height="24.278"/>
	<rect x="276.298" y="917.311" fill="#ECEDEE" width="58.845" height="2.712"/>
	<rect x="294.648" y="924.887" fill="#ECEDEE" width="22.146" height="2.712"/>
</g>
<g>
	<rect x="328.747" y="895.582" fill="#FFFFFF" width="36.002" height="9.732"/>
	<circle fill="#ECEDEE" cx="336.79" cy="900.448" r="3"/>
	<circle fill="#ECEDEE" cx="346.748" cy="900.333" r="3"/>
	<circle fill="#ECEDEE" cx="356.706" cy="900.448" r="3"/>
</g>
<g>
	<rect x="98.146" y="561.542" fill="#FFFFFF" width="22.042" height="8.125"/>
	<g>
		<path fill="#141414" d="M104.004,566.031l0.563-0.055c0.033,0.188,0.103,0.327,0.206,0.416s0.243,0.133,0.419,0.133
			c0.186,0,0.326-0.039,0.421-0.118c0.094-0.079,0.142-0.171,0.142-0.276c0-0.067-0.021-0.125-0.06-0.173
			c-0.04-0.048-0.109-0.089-0.208-0.124c-0.068-0.023-0.223-0.065-0.463-0.125c-0.311-0.077-0.527-0.171-0.652-0.283
			c-0.176-0.157-0.264-0.35-0.264-0.576c0-0.146,0.041-0.282,0.124-0.409c0.082-0.127,0.201-0.224,0.357-0.29
			c0.155-0.066,0.343-0.1,0.563-0.1c0.359,0,0.63,0.079,0.812,0.236s0.276,0.368,0.286,0.631l-0.578,0.025
			c-0.025-0.147-0.078-0.253-0.159-0.317c-0.082-0.064-0.204-0.097-0.366-0.097c-0.168,0-0.3,0.034-0.395,0.104
			c-0.062,0.044-0.092,0.104-0.092,0.178c0,0.067,0.028,0.126,0.086,0.174c0.072,0.062,0.25,0.125,0.531,0.191
			s0.489,0.135,0.624,0.206s0.24,0.168,0.316,0.291s0.114,0.275,0.114,0.456c0,0.164-0.046,0.317-0.137,0.461
			c-0.092,0.144-0.221,0.25-0.387,0.319c-0.167,0.069-0.375,0.104-0.623,0.104c-0.362,0-0.641-0.084-0.834-0.251
			C104.157,566.595,104.041,566.351,104.004,566.031z"/>
		<path fill="#141414" d="M108.025,565.521l-0.498-0.09c0.056-0.2,0.152-0.349,0.289-0.445s0.34-0.145,0.609-0.145
			c0.244,0,0.427,0.029,0.547,0.087c0.119,0.058,0.204,0.132,0.253,0.221s0.073,0.253,0.073,0.491l-0.006,0.641
			c0,0.183,0.009,0.316,0.026,0.403s0.05,0.18,0.099,0.278h-0.543c-0.015-0.036-0.032-0.091-0.053-0.162
			c-0.01-0.032-0.016-0.054-0.02-0.064c-0.094,0.091-0.194,0.159-0.301,0.205c-0.107,0.046-0.221,0.068-0.342,0.068
			c-0.214,0-0.382-0.058-0.505-0.174s-0.185-0.263-0.185-0.439c0-0.117,0.027-0.222,0.084-0.313
			c0.056-0.092,0.134-0.162,0.235-0.211c0.101-0.049,0.246-0.092,0.437-0.128c0.256-0.048,0.434-0.093,0.533-0.135v-0.055
			c0-0.105-0.026-0.181-0.078-0.226c-0.053-0.045-0.15-0.067-0.295-0.067c-0.098,0-0.174,0.02-0.229,0.058
			S108.058,565.424,108.025,565.521z M108.759,565.966c-0.07,0.023-0.182,0.052-0.334,0.084s-0.252,0.064-0.299,0.096
			c-0.072,0.051-0.107,0.115-0.107,0.193c0,0.077,0.028,0.144,0.086,0.199c0.057,0.056,0.13,0.084,0.219,0.084
			c0.099,0,0.193-0.032,0.283-0.098c0.066-0.05,0.109-0.11,0.131-0.182c0.014-0.047,0.021-0.136,0.021-0.268V565.966z"/>
		<path fill="#141414" d="M110.639,566.962v-2.863h0.549v2.863H110.639z"/>
		<path fill="#141414" d="M113.751,566.302l0.548,0.092c-0.07,0.2-0.182,0.354-0.334,0.458c-0.151,0.104-0.341,0.157-0.569,0.157
			c-0.36,0-0.627-0.118-0.801-0.354c-0.137-0.188-0.205-0.427-0.205-0.715c0-0.344,0.09-0.613,0.27-0.808s0.407-0.292,0.682-0.292
			c0.309,0,0.553,0.102,0.731,0.306c0.178,0.204,0.264,0.516,0.256,0.937h-1.376c0.004,0.163,0.049,0.289,0.133,0.38
			c0.085,0.091,0.19,0.136,0.316,0.136c0.086,0,0.158-0.023,0.217-0.07S113.722,566.407,113.751,566.302z M113.782,565.747
			c-0.004-0.159-0.045-0.279-0.123-0.362s-0.173-0.124-0.285-0.124c-0.119,0-0.219,0.044-0.297,0.131s-0.116,0.206-0.115,0.355
			H113.782z"/>
	</g>
</g>
<g>
	<path d="M314.022,842.125v-4.295h1.611c0.328,0,0.591,0.044,0.789,0.131s0.354,0.221,0.467,0.4c0.111,0.182,0.168,0.37,0.168,0.567
		c0,0.184-0.05,0.356-0.149,0.519s-0.25,0.293-0.451,0.393c0.26,0.076,0.459,0.206,0.599,0.39s0.21,0.4,0.21,0.65
		c0,0.201-0.042,0.388-0.128,0.562c-0.084,0.172-0.189,0.306-0.314,0.399s-0.282,0.165-0.471,0.212
		c-0.188,0.049-0.419,0.072-0.692,0.072H314.022z M314.591,839.635h0.929c0.252,0,0.433-0.017,0.542-0.05
		c0.145-0.043,0.254-0.114,0.326-0.214c0.074-0.1,0.11-0.225,0.11-0.375c0-0.143-0.034-0.268-0.103-0.377
		c-0.068-0.107-0.166-0.182-0.293-0.223c-0.127-0.039-0.345-0.06-0.653-0.06h-0.858V839.635z M314.591,841.618h1.069
		c0.184,0,0.313-0.007,0.387-0.021c0.131-0.023,0.24-0.063,0.328-0.117s0.16-0.134,0.217-0.238s0.085-0.226,0.085-0.362
		c0-0.16-0.041-0.299-0.123-0.417s-0.196-0.201-0.342-0.25c-0.146-0.047-0.354-0.071-0.628-0.071h-0.993V841.618z"/>
	<path d="M322.066,837.83h0.568v2.481c0,0.432-0.049,0.774-0.146,1.028s-0.273,0.461-0.529,0.619
		c-0.254,0.16-0.589,0.239-1.003,0.239c-0.402,0-0.731-0.069-0.987-0.208s-0.438-0.339-0.548-0.602s-0.164-0.622-0.164-1.077v-2.481
		h0.568v2.479c0,0.373,0.034,0.648,0.104,0.824c0.068,0.178,0.188,0.313,0.357,0.409c0.168,0.096,0.375,0.144,0.619,0.144
		c0.418,0,0.716-0.095,0.894-0.284s0.267-0.554,0.267-1.093V837.83z"/>
	<path d="M325.874,842.125v-3.788h-1.415v-0.507h3.404v0.507h-1.421v3.788H325.874z"/>
	<path d="M330.738,842.125v-3.788h-1.415v-0.507h3.404v0.507h-1.421v3.788H330.738z"/>
	<path d="M334.229,840.033c0-0.713,0.191-1.271,0.574-1.674s0.877-0.605,1.482-0.605c0.396,0,0.754,0.095,1.072,0.284
		s0.562,0.454,0.728,0.792c0.168,0.34,0.251,0.724,0.251,1.153c0,0.436-0.088,0.825-0.264,1.169s-0.425,0.604-0.747,0.781
		s-0.67,0.265-1.043,0.265c-0.404,0-0.766-0.098-1.084-0.293s-0.56-0.462-0.724-0.8S334.229,840.41,334.229,840.033z
		 M334.815,840.042c0,0.518,0.14,0.926,0.417,1.224c0.279,0.298,0.628,0.446,1.048,0.446c0.428,0,0.779-0.15,1.056-0.451
		s0.415-0.728,0.415-1.28c0-0.35-0.06-0.654-0.177-0.916c-0.119-0.26-0.292-0.463-0.52-0.605c-0.228-0.145-0.482-0.216-0.766-0.216
		c-0.402,0-0.748,0.139-1.039,0.415C334.961,838.935,334.815,839.396,334.815,840.042z"/>
	<path d="M340.264,842.125v-4.295h0.583l2.256,3.372v-3.372h0.545v4.295h-0.583l-2.256-3.375v3.375H340.264z"/>
</g>
<g>
	<path d="M475.091,839.85v-4.295h1.611c0.328,0,0.591,0.044,0.789,0.131s0.354,0.221,0.467,0.4c0.111,0.182,0.168,0.37,0.168,0.567
		c0,0.184-0.05,0.356-0.149,0.519s-0.25,0.293-0.451,0.393c0.26,0.076,0.459,0.206,0.599,0.39s0.21,0.4,0.21,0.65
		c0,0.201-0.042,0.388-0.128,0.562c-0.084,0.172-0.189,0.306-0.314,0.399s-0.282,0.165-0.471,0.212
		c-0.188,0.049-0.419,0.072-0.692,0.072H475.091z M475.659,837.359h0.929c0.252,0,0.433-0.017,0.542-0.05
		c0.145-0.043,0.254-0.114,0.326-0.214c0.074-0.1,0.11-0.225,0.11-0.375c0-0.143-0.034-0.268-0.103-0.377
		c-0.068-0.107-0.166-0.182-0.293-0.223c-0.127-0.039-0.345-0.06-0.653-0.06h-0.858V837.359z M475.659,839.343h1.069
		c0.184,0,0.313-0.007,0.387-0.021c0.131-0.023,0.24-0.063,0.328-0.117s0.16-0.134,0.217-0.238s0.085-0.226,0.085-0.362
		c0-0.16-0.041-0.299-0.123-0.417s-0.196-0.201-0.342-0.25c-0.146-0.047-0.354-0.071-0.628-0.071h-0.993V839.343z"/>
	<path d="M483.135,835.555h0.568v2.481c0,0.432-0.049,0.774-0.146,1.028s-0.273,0.461-0.529,0.619
		c-0.254,0.16-0.589,0.239-1.003,0.239c-0.402,0-0.731-0.069-0.987-0.208s-0.438-0.339-0.548-0.602s-0.164-0.622-0.164-1.077v-2.481
		h0.568v2.479c0,0.373,0.034,0.648,0.104,0.824c0.068,0.178,0.188,0.313,0.357,0.409c0.168,0.096,0.375,0.144,0.619,0.144
		c0.418,0,0.716-0.095,0.894-0.284s0.267-0.554,0.267-1.093V835.555z"/>
	<path d="M486.942,839.85v-3.788h-1.415v-0.507h3.404v0.507h-1.421v3.788H486.942z"/>
	<path d="M491.807,839.85v-3.788h-1.415v-0.507h3.404v0.507h-1.421v3.788H491.807z"/>
	<path d="M495.298,837.758c0-0.713,0.191-1.271,0.574-1.674s0.877-0.605,1.482-0.605c0.396,0,0.754,0.095,1.072,0.284
		s0.562,0.454,0.728,0.792c0.168,0.34,0.251,0.724,0.251,1.153c0,0.436-0.088,0.825-0.264,1.169s-0.425,0.604-0.747,0.781
		s-0.67,0.265-1.043,0.265c-0.404,0-0.766-0.098-1.084-0.293s-0.56-0.462-0.724-0.8S495.298,838.135,495.298,837.758z
		 M495.884,837.767c0,0.518,0.14,0.926,0.417,1.224c0.279,0.298,0.628,0.446,1.048,0.446c0.428,0,0.779-0.15,1.056-0.451
		s0.415-0.728,0.415-1.28c0-0.35-0.06-0.654-0.177-0.916c-0.119-0.26-0.292-0.463-0.52-0.605c-0.228-0.145-0.482-0.216-0.766-0.216
		c-0.402,0-0.748,0.139-1.039,0.415C496.029,836.659,495.884,837.12,495.884,837.767z"/>
	<path d="M501.332,839.85v-4.295h0.583l2.256,3.372v-3.372h0.545v4.295h-0.583l-2.256-3.375v3.375H501.332z"/>
</g>
<polygon fill="#FFFFFF" points="53.378,998.555 49.5,1002.47 49.5,1003.891 54.792,998.549 49.5,993.306 49.5,994.714 "/>
<polygon fill="#FFFFFF" points="-67.286,998.638 -63.404,994.726 -63.403,993.306 -68.7,998.643 -63.413,1003.891 -63.411,1002.483 
	"/>
<path fill="#FFFFFF" d="M217.326,1026.107c0,1.657-1.343,3-3,3h-130c-1.657,0-3-1.343-3-3v-54c0-1.657,1.343-3,3-3h130
	c1.657,0,3,1.343,3,3V1026.107z"/>
<rect x="88.3" y="973.833" fill="#ECEDEE" width="56.7" height="49.833"/>
<rect x="149.326" y="991.144" fill="#ECEDEE" width="22.146" height="2.712"/>
<rect x="149.326" y="981.788" fill="#ECEDEE" width="43.924" height="2.712"/>
<g>
	<circle fill="#FFFFFF" cx="-13.06" cy="1013.667" r="1.542"/>
	<circle fill="#FFFFFF" cx="-7.473" cy="1013.667" r="1.542"/>
	<circle fill="#FFFFFF" cx="-2.289" cy="1013.667" r="1.542"/>
</g>
<path fill="#FFFFFF" d="M383.659,1026.107c0,1.657-1.343,3-3,3h-130c-1.657,0-3-1.343-3-3v-54c0-1.657,1.343-3,3-3h130
	c1.657,0,3,1.343,3,3V1026.107z"/>
<rect x="247.659" y="978.25" fill="#ECEDEE" width="136" height="41.807"/>
<rect x="304.586" y="998.454" fill="#FFFFFF" width="22.146" height="2.712"/>
<rect x="286.237" y="989.788" fill="#FFFFFF" width="58.845" height="2.712"/>
<polygon fill="#FFFFFF" points="376.712,998.555 372.833,1002.47 372.833,1003.891 378.126,998.549 372.833,993.306 
	372.833,994.714 "/>
<polygon fill="#FFFFFF" points="256.047,998.638 259.929,994.726 259.93,993.306 254.633,998.643 259.921,1003.891 
	259.922,1002.483 "/>
<g>
	<circle fill="#FFFFFF" cx="310.274" cy="1013.667" r="1.542"/>
	<circle fill="#FFFFFF" cx="315.86" cy="1013.667" r="1.542"/>
	<circle fill="#FFFFFF" cx="321.045" cy="1013.667" r="1.542"/>
</g>
<polygon fill="#ECEDEE" points="205.491,1014.415 201.576,1010.537 200.156,1010.537 205.497,1015.829 210.74,1010.537 
	209.332,1010.537 "/>
<polygon fill="#ECEDEE" points="205.456,984.55 209.319,988.481 210.74,988.5 205.469,983.136 200.156,988.358 201.564,988.377 "/>
<g>
	<circle fill="#ECEDEE" cx="205.448" cy="994.064" r="1.542"/>
	<circle fill="#ECEDEE" cx="205.448" cy="999.65" r="1.542"/>
	<circle fill="#ECEDEE" cx="205.448" cy="1004.835" r="1.542"/>
</g>
<path fill="#FFFFFF" d="M569.573,81.164c0,1.687-1.344,3.055-3.001,3.055H312.574c-1.657,0-3.001-1.368-3.001-3.055V7.274
	c0-1.687,1.344-3.055,3.001-3.055h253.998c1.657,0,3.001,1.368,3.001,3.055V81.164z"/>
<rect x="314.682" y="24.673" opacity="0.3" fill="#AAACAD" enable-background="new    " width="250" height="0.5"/>
<rect x="314.682" y="61.991" opacity="0.3" fill="#AAACAD" enable-background="new    " width="250" height="0.5"/>
<g>
	<rect x="483.652" y="71.05" fill="#ECEDEE" width="14.37" height="4.412"/>
	<rect x="501.85" y="71.05" fill="#ECEDEE" width="14.37" height="4.412"/>
	<rect x="520.048" y="71.05" fill="#ECEDEE" width="14.37" height="4.412"/>
	<rect x="538.246" y="71.05" fill="#ECEDEE" width="14.37" height="4.412"/>
</g>
<rect x="325.538" y="12.209" fill="#ECEDEE" width="38.602" height="4.412"/>
<rect x="514.79" y="12.209" fill="#ECEDEE" width="38.602" height="4.412"/>
<rect x="420.436" y="12.209" fill="#ECEDEE" width="38.602" height="4.412"/>
<path fill="#989A9B" d="M325.636,47.379h5.135v-1.398h-3.441v-6.622h-1.694V47.379z M341.159,43.369c0-2.625-1.63-4.12-3.757-4.12
	c-2.14,0-3.757,1.496-3.757,4.12c0,2.612,1.619,4.12,3.757,4.12C339.528,47.49,341.159,45.992,341.159,43.369z M339.438,43.369
	c0,1.698-0.805,2.621-2.036,2.621c-1.235,0-2.036-0.922-2.036-2.621s0.803-2.621,2.036-2.621c1.231,0,2.038,0.92,2.038,2.621
	H339.438z M349.938,41.951h1.725c-0.221-1.586-1.617-2.702-3.43-2.702c-2.12,0-3.752,1.526-3.752,4.127
	c0,2.537,1.526,4.114,3.787,4.114c2.023,0,3.47-1.279,3.47-3.393v-1.01h-3.357v1.277h1.723c-0.022,0.993-0.701,1.626-1.829,1.626
	c-1.273,0-2.073-0.953-2.073-2.629c0-1.668,0.832-2.612,2.058-2.612c0.874,0,1.465,0.45,1.681,1.202L349.938,41.951z
	 M362.588,43.369c0-2.625-1.63-4.12-3.757-4.12c-2.14,0-3.757,1.496-3.757,4.12c0,2.612,1.619,4.12,3.757,4.12
	C360.958,47.49,362.588,45.992,362.588,43.369z M360.868,43.369c0,1.698-0.805,2.621-2.036,2.621c-1.235,0-2.036-0.922-2.036-2.621
	s0.803-2.621,2.036-2.621C360.063,40.749,360.868,41.668,360.868,43.369z"/>
<g>
	<path fill="#989A9B" d="M510.839,44.749l-1.676,0.497l0.167,0.568l0.682-0.213c-0.718,1.04-1.935,1.62-3.195,1.523l0,0
		c-0.107-0.007-0.214-0.02-0.32-0.039l0,0l-0.277-0.06l-0.114-0.021l-0.199-0.06l-0.135-0.064l-0.131-0.053l-0.209-0.103
		c-1.083-0.555-1.803-1.628-1.907-2.84l-0.582,0.05c0.115,1.396,0.929,2.638,2.162,3.302l0,0c0.107,0.057,0.217,0.11,0.33,0.16
		h0.039c0.099,0.043,0.202,0.078,0.305,0.114l0.071,0.025l0.266,0.067l0.114,0.028c0.067,0,0.138,0.021,0.209,0.032l0.174,0.028l0,0
		c1.551,0.16,3.06-0.564,3.905-1.875l0.224,0.763l0.561-0.163L510.839,44.749z"/>
	<path fill="#989A9B" d="M503.383,42.235l1.697-0.415l-0.138-0.564l-0.678,0.167c0.768-1.002,2.01-1.521,3.263-1.363l0,0
		c0.106,0.013,0.212,0.032,0.316,0.057l0,0l0.273,0.071l0.075,0.025l0.199,0.071l0.142,0.06l0.128,0.06
		c0.067,0.036,0.138,0.071,0.206,0.114c1.055,0.608,1.725,1.713,1.775,2.929l0.582-0.021c-0.051-1.391-0.8-2.662-1.992-3.38l0,0l0,0
		c-0.103-0.064-0.21-0.122-0.32-0.174l-0.039-0.018c-0.097-0.045-0.196-0.088-0.298-0.128l-0.071-0.025
		c-0.085-0.032-0.174-0.06-0.263-0.085l-0.11-0.032l-0.206-0.046c-0.06,0-0.117-0.025-0.178-0.032h-0.018
		c-1.543-0.244-3.092,0.401-4.005,1.669l-0.188-0.774l-0.564,0.138L503.383,42.235z"/>
</g>
<g>
	<path fill="#989A9B" d="M536.901,47.761h-0.696v-1.756c0-0.273-0.109-0.535-0.302-0.728c-0.193-0.193-0.455-0.302-0.728-0.302
		h-2.816c-0.273,0-0.535,0.109-0.728,0.302s-0.302,0.455-0.302,0.728v1.756h-0.696v-1.756c0.001-0.458,0.183-0.896,0.506-1.22
		c0.324-0.324,0.762-0.506,1.22-0.506h2.816c0.458,0.001,0.896,0.183,1.22,0.506c0.324,0.324,0.506,0.762,0.506,1.22V47.761z"/>
	<path fill="#989A9B" d="M533.767,43.582c-0.413,0-0.817-0.123-1.161-0.352c-0.344-0.23-0.611-0.556-0.77-0.938
		c-0.158-0.382-0.2-0.802-0.119-1.207c0.081-0.405,0.28-0.778,0.572-1.07c0.292-0.292,0.664-0.491,1.07-0.572
		c0.405-0.081,0.825-0.039,1.207,0.119c0.382,0.158,0.708,0.426,0.938,0.77c0.229,0.344,0.352,0.748,0.352,1.161
		c-0.001,0.554-0.221,1.085-0.613,1.477C534.852,43.362,534.321,43.582,533.767,43.582z M533.767,40.1
		c-0.275,0-0.545,0.082-0.774,0.235s-0.408,0.371-0.513,0.625s-0.133,0.535-0.079,0.805c0.054,0.27,0.186,0.518,0.381,0.713
		c0.195,0.195,0.443,0.327,0.713,0.381c0.27,0.054,0.55,0.026,0.805-0.079c0.255-0.105,0.472-0.284,0.625-0.513
		c0.153-0.229,0.235-0.498,0.235-0.774c0-0.369-0.147-0.724-0.408-0.985C534.49,40.247,534.136,40.1,533.767,40.1z"/>
</g>
<g>
	<path fill="#989A9B" d="M522.294,39.757c-0.389,0.006-0.769,0.115-1.102,0.315c-0.333,0.2-0.608,0.484-0.796,0.825
		c-0.188-0.34-0.463-0.625-0.796-0.825c-0.333-0.2-0.714-0.309-1.102-0.315c-0.62,0.027-1.203,0.298-1.624,0.754
		c-0.42,0.456-0.643,1.06-0.62,1.68c0,2.339,3.782,5.04,3.943,5.155l0.2,0.141l0.2-0.141c0.161-0.114,3.943-2.816,3.943-5.155
		c0.023-0.62-0.199-1.224-0.62-1.68C523.497,40.055,522.913,39.783,522.294,39.757z M520.395,46.636
		c-1.123-0.839-3.452-2.9-3.452-4.446c-0.024-0.437,0.126-0.865,0.417-1.192s0.699-0.525,1.136-0.552
		c0.437,0.027,0.845,0.225,1.136,0.552c0.291,0.327,0.441,0.755,0.417,1.192h0.69c-0.024-0.437,0.126-0.865,0.417-1.192
		s0.699-0.525,1.136-0.552c0.437,0.027,0.845,0.225,1.136,0.552c0.291,0.327,0.441,0.755,0.417,1.192
		C523.847,43.737,521.518,45.797,520.395,46.636z"/>
</g>
<g>
	<path fill="#989A9B" d="M553.01,40.158h-7.518l-0.016-0.134c-0.033-0.278-0.166-0.534-0.375-0.719s-0.479-0.288-0.758-0.289h-0.465
		v0.761h0.465c0.093,0,0.183,0.034,0.253,0.096c0.07,0.062,0.114,0.147,0.125,0.24l0.603,5.125c0.033,0.278,0.166,0.534,0.375,0.719
		c0.209,0.186,0.479,0.288,0.758,0.289h5.031v-0.761h-5.031c-0.093,0-0.183-0.034-0.253-0.096c-0.07-0.062-0.114-0.147-0.125-0.24
		l-0.05-0.425h6.157L553.01,40.158z M551.55,43.963h-5.61l-0.358-3.044h6.518L551.55,43.963z"/>
	<path fill="#989A9B" d="M546.541,48.148c0.42,0,0.761-0.341,0.761-0.761c0-0.42-0.341-0.761-0.761-0.761s-0.761,0.341-0.761,0.761
		C545.78,47.808,546.121,48.148,546.541,48.148z"/>
	<path fill="#989A9B" d="M550.346,48.148c0.42,0,0.761-0.341,0.761-0.761c0-0.42-0.341-0.761-0.761-0.761s-0.761,0.341-0.761,0.761
		C549.585,47.808,549.926,48.148,550.346,48.148z"/>
</g>
<path fill="#F7F7F7" d="M488.167,43.75c0,3.452-2.798,6.25-6.25,6.25h-79.333c-3.452,0-6.25-2.798-6.25-6.25l0,0
	c0-3.452,2.798-6.25,6.25-6.25h79.333C485.368,37.5,488.167,40.298,488.167,43.75L488.167,43.75z"/>
<path fill="#989A9B" d="M484.302,45.821l-1.366-1.269c0.229-0.329,0.366-0.726,0.366-1.157c0-1.119-0.91-2.029-2.029-2.029
	c-1.119,0-2.029,0.91-2.029,2.029c0,1.119,0.91,2.029,2.029,2.029c0.463,0,0.885-0.162,1.227-0.424l1.376,1.279L484.302,45.821z
	 M479.819,43.395c0-0.802,0.653-1.455,1.455-1.455c0.802,0,1.455,0.653,1.455,1.455c0,0.802-0.653,1.455-1.455,1.455
	C480.472,44.849,479.819,44.197,479.819,43.395z"/>
<rect x="326" y="69.5" fill="#ECEDEE" width="37" height="7.333"/>
</svg>
