<?xml version="1.0" encoding="utf-8"?>
<!-- Generator: Adobe Illustrator 17.0.0, SVG Export Plug-In . SVG Version: 6.00 Build 0)  -->
<!DOCTYPE svg PUBLIC "-//W3C//DTD SVG 1.1//EN" "http://www.w3.org/Graphics/SVG/1.1/DTD/svg11.dtd">
<svg version="1.1" id="Layer_1" xmlns="http://www.w3.org/2000/svg" xmlns:xlink="http://www.w3.org/1999/xlink" x="0px" y="0px"
	 width="260px" height="55px" viewBox="-70.465 112.218 260 55" enable-background="new -70.465 112.218 260 55"
	 xml:space="preserve">
<path fill="#FFFFFF" d="M189.535,164.248c0,1.64-1.344,2.97-3.001,2.97H-67.464c-1.657,0-3.001-1.33-3.001-2.97v-49.061
	c0-1.64,1.344-2.97,3.001-2.97h253.998c1.657,0,3.001,1.33,3.001,2.97V164.248z"/>
<rect x="-67.856" y="131.673" opacity="0.3" fill="#AAACAD" enable-background="new    " width="255" height="0.5"/>
<path fill="#989A9B" d="M-54.402,154.379h5.135v-1.398h-3.441v-6.622h-1.694L-54.402,154.379z M-38.879,150.369
	c0-2.625-1.63-4.12-3.757-4.12c-2.14,0-3.757,1.496-3.757,4.12c0,2.612,1.619,4.12,3.757,4.12
	C-40.51,154.49-38.879,152.992-38.879,150.369z M-40.6,150.369c0,1.698-0.805,2.621-2.036,2.621c-1.235,0-2.036-0.922-2.036-2.621
	s0.803-2.621,2.036-2.621c1.231,0,2.038,0.92,2.038,2.621H-40.6z M-30.1,148.951h1.725c-0.221-1.586-1.617-2.702-3.43-2.702
	c-2.12,0-3.752,1.526-3.752,4.127c0,2.537,1.526,4.114,3.787,4.114c2.023,0,3.47-1.279,3.47-3.393v-1.01h-3.357v1.277h1.723
	c-0.022,0.993-0.701,1.626-1.829,1.626c-1.273,0-2.073-0.953-2.073-2.629c0-1.668,0.832-2.612,2.058-2.612
	c0.874,0,1.465,0.45,1.681,1.202H-30.1z M-17.45,150.369c0-2.625-1.63-4.12-3.757-4.12c-2.14,0-3.757,1.496-3.757,4.12
	c0,2.612,1.619,4.12,3.757,4.12C-19.08,154.49-17.45,152.992-17.45,150.369z M-19.17,150.369c0,1.698-0.805,2.621-2.036,2.621
	c-1.235,0-2.036-0.922-2.036-2.621s0.803-2.621,2.036-2.621C-19.975,147.749-19.17,148.668-19.17,150.369z"/>
<rect x="151.5" y="147.7" fill="#ECEDEE" width="21.854" height="5.764"/>
<g>
	<rect x="25.563" y="148.377" fill="#ECEDEE" width="14.37" height="4.412"/>
	<rect x="43.761" y="148.377" fill="#ECEDEE" width="14.37" height="4.412"/>
	<rect x="61.959" y="148.377" fill="#ECEDEE" width="14.37" height="4.412"/>
	<rect x="80.157" y="148.377" fill="#ECEDEE" width="14.37" height="4.412"/>
</g>
<rect x="-54.5" y="119.209" fill="#ECEDEE" width="38.602" height="4.412"/>
<rect x="134.752" y="119.209" fill="#ECEDEE" width="38.602" height="4.412"/>
<rect x="40.398" y="119.209" fill="#ECEDEE" width="38.602" height="4.412"/>
<g>
	<rect x="122.583" y="147.362" fill="#989A9B" width="9.167" height="0.676"/>
	<rect x="122.583" y="149.906" fill="#989A9B" width="9.167" height="0.676"/>
	<rect x="122.583" y="152.314" fill="#989A9B" width="9.167" height="0.676"/>
</g>
<path fill="#989A9B" d="M116.117,154.062l-2.378-2.211c0.399-0.572,0.637-1.265,0.637-2.014c0-1.948-1.585-3.533-3.533-3.533
	s-3.533,1.585-3.533,3.533s1.585,3.533,3.533,3.533c0.806,0,1.541-0.282,2.136-0.738l2.397,2.227L116.117,154.062z M108.309,149.838
	c0-1.396,1.137-2.533,2.533-2.533s2.533,1.137,2.533,2.533s-1.137,2.533-2.533,2.533S108.309,151.234,108.309,149.838z"/>
<g>
	<path fill="#989A9B" d="M145.333,146.908h-6.583l-0.014-0.117c-0.029-0.243-0.145-0.467-0.328-0.63
		c-0.183-0.163-0.419-0.253-0.664-0.253h-0.407v0.666h0.407c0.082,0,0.16,0.03,0.221,0.084c0.061,0.054,0.1,0.129,0.109,0.21
		l0.528,4.487c0.029,0.243,0.145,0.467,0.328,0.63c0.183,0.163,0.419,0.253,0.664,0.253h4.405v-0.666h-4.405
		c-0.082,0-0.16-0.03-0.221-0.084c-0.061-0.054-0.1-0.129-0.109-0.21l-0.044-0.372h5.391L145.333,146.908z M144.055,150.239h-4.913
		l-0.314-2.665h5.707L144.055,150.239z"/>
	<path fill="#989A9B" d="M139.67,153.904c0.368,0,0.666-0.298,0.666-0.666s-0.298-0.666-0.666-0.666
		c-0.368,0-0.666,0.298-0.666,0.666S139.302,153.904,139.67,153.904z"/>
	<path fill="#989A9B" d="M143.001,153.904c0.368,0,0.666-0.298,0.666-0.666s-0.298-0.666-0.666-0.666
		c-0.368,0-0.666,0.298-0.666,0.666S142.633,153.904,143.001,153.904z"/>
</g>
</svg>
