<?xml version="1.0" encoding="utf-8"?>
<!-- Generator: Adobe Illustrator 17.0.0, SVG Export Plug-In . SVG Version: 6.00 Build 0)  -->
<!DOCTYPE svg PUBLIC "-//W3C//DTD SVG 1.1//EN" "http://www.w3.org/Graphics/SVG/1.1/DTD/svg11.dtd">
<svg version="1.1" id="Layer_1" xmlns="http://www.w3.org/2000/svg" xmlns:xlink="http://www.w3.org/1999/xlink" x="0px" y="0px"
	 width="136px" height="60px" viewBox="0 0 136 60" enable-background="new 0 0 136 60" xml:space="preserve">
<path fill="#FFFFFF" d="M136,57c0,1.657-1.343,3-3,3H3c-1.657,0-3-1.343-3-3V3c0-1.657,1.343-3,3-3h130c1.657,0,3,1.343,3,3V57z"/>
<rect x="3.326" y="9.143" fill="#ECEDED" width="129.348" height="41.807"/>
<rect x="56.927" y="29.347" fill="#FFFFFF" width="22.146" height="2.712"/>
<rect x="38.578" y="20.681" fill="#FFFFFF" width="58.845" height="2.712"/>
<polygon fill="#FFFFFF" points="126.052,29.448 122.174,33.364 122.174,34.784 127.466,29.442 122.174,24.199 122.174,25.607 "/>
<polygon fill="#FFFFFF" points="9.415,29.531 13.296,25.62 13.298,24.199 8.001,29.536 13.288,34.784 13.289,33.376 "/>
<g>
	<circle fill="#FFFFFF" cx="62.615" cy="44.56" r="1.542"/>
	<circle fill="#FFFFFF" cx="68.201" cy="44.56" r="1.542"/>
	<circle fill="#FFFFFF" cx="73.385" cy="44.56" r="1.542"/>
</g>
</svg>
