<?xml version="1.0" encoding="utf-8"?>
<!-- Generator: Adobe Illustrator 17.0.0, SVG Export Plug-In . SVG Version: 6.00 Build 0)  -->
<!DOCTYPE svg PUBLIC "-//W3C//DTD SVG 1.1//EN" "http://www.w3.org/Graphics/SVG/1.1/DTD/svg11.dtd">
<svg version="1.1" id="Layer_1" xmlns="http://www.w3.org/2000/svg" xmlns:xlink="http://www.w3.org/1999/xlink" x="0px" y="0px"
	 width="136px" height="60px" viewBox="0 0 136 60" enable-background="new 0 0 136 60" xml:space="preserve">
<path fill="#FFFFFF" d="M136,57c0,1.657-1.343,3-3,3H3c-1.657,0-3-1.343-3-3V3c0-1.657,1.343-3,3-3h130c1.657,0,3,1.343,3,3V57z"/>
<rect x="67.633" y="3.971" fill="#ECEDED" width="64.374" height="52.279"/>
<g>
	<rect x="24.195" y="33.322" fill="#ECEDED" width="22.146" height="2.712"/>
	<rect x="13.305" y="23.966" fill="#ECEDED" width="43.924" height="2.712"/>
</g>
<polygon fill="#FFFFFF" points="121.165,45.308 117.25,41.43 115.829,41.43 121.171,46.722 126.414,41.43 125.006,41.43 "/>
<polygon fill="#FFFFFF" points="121.13,15.444 124.993,19.374 126.413,19.393 121.143,14.03 115.83,19.252 117.238,19.27 "/>
<g>
	<circle fill="#FFFFFF" cx="121.122" cy="24.957" r="1.542"/>
	<circle fill="#FFFFFF" cx="121.122" cy="30.544" r="1.542"/>
	<circle fill="#FFFFFF" cx="121.122" cy="35.728" r="1.542"/>
</g>
</svg>
