<svg width="200" height="42" viewBox="0 0 260 42" fill="none" xmlns="http://www.w3.org/2000/svg">
<path d="M43.4642 0.541546H4.47278C3.94126 0.541546 3.36963 0.942692 3.36963 1.47421V40.4456C3.36963 40.9871 3.94126 41.4484 4.47278 41.4484H43.4642C43.9957 41.4484 44.2865 40.9771 44.2865 40.4456V1.47421C44.2765 0.942692 43.9957 0.541546 43.4642 0.541546ZM19.5659 5.93696H28.0903V13.1776H19.5659V5.93696ZM9.05588 5.93696H17.5802V13.1776H9.05588V5.93696ZM22.404 36.1934H9.05588V28.5215H22.404V36.1934ZM22.404 25.8238H9.05588V18.1519H22.404V25.8238ZM39.0215 36.1934H25.6734V28.5215H39.0215V36.1934ZM39.0215 25.8238H25.6734V18.1519H39.0215V25.8238ZM39.0215 13.1877H30.4971V5.93696H39.0215V13.1877Z" fill="#F15D32"/>
<path d="M56.1104 28.8123C56.1705 28.2708 56.351 27.7092 56.6519 27.1576C56.9528 26.596 57.3038 26.1547 57.6949 25.8238C59.7106 27.1175 61.6763 27.7593 63.6118 27.7593C64.5545 27.7593 65.2966 27.5387 65.8381 27.0974C66.3797 26.6562 66.6605 26.1046 66.6605 25.4427C66.6204 24.3095 65.8682 23.4169 64.404 22.7751L60.9442 21.3109C59.5803 20.7493 58.5473 20.0172 57.8654 19.1246C57.1834 18.2321 56.8424 17.2192 56.8424 16.0659C56.8424 15.1834 57.0129 14.3811 57.3539 13.659C57.6949 12.937 58.1863 12.3152 58.8181 11.7937C59.4499 11.2722 60.202 10.8711 61.0745 10.5802C61.947 10.2894 62.9098 10.139 63.9628 10.139C66.1089 10.139 68.225 10.6805 70.2909 11.7536C70.2307 12.947 69.7694 13.9398 68.9169 14.7421C66.9413 13.8195 65.2264 13.3682 63.7622 13.3682C62.8195 13.3682 62.1075 13.5788 61.6061 14.01C61.1046 14.4413 60.8539 14.9627 60.8539 15.5845C60.8539 16.4771 61.5459 17.2192 62.9298 17.8009L66.3897 19.265C67.7937 19.8467 68.8768 20.6189 69.639 21.5817C70.4012 22.5444 70.7823 23.6476 70.7823 24.8911C70.7823 25.7736 70.6218 26.586 70.3109 27.3381C70 28.0903 69.5287 28.7321 68.8869 29.2736C68.2551 29.8152 67.4628 30.2364 66.5101 30.5372C65.5573 30.8381 64.4442 30.9885 63.1505 30.9885C60.6634 30.9785 58.3167 30.2564 56.1104 28.8123Z" fill="#373747"/>
<path d="M80.781 21.5716C80.781 19.9871 80.2695 19.1948 79.2566 19.1948C78.4142 19.235 77.5618 19.6963 76.7093 20.5688V30.5673C76.1277 30.6676 75.4858 30.7178 74.8039 30.7178C74.1219 30.7178 73.4901 30.6676 72.8984 30.5673V16.0559L73.079 15.8553H74.5131C75.6663 15.8553 76.3684 16.457 76.6191 17.6705C77.983 16.3968 79.3469 15.765 80.6907 15.765C82.2953 15.765 83.4285 16.467 84.0904 17.8711C85.5947 16.467 87.1191 15.765 88.6635 15.765C89.9171 15.765 90.8698 16.1862 91.5216 17.0387C92.1735 17.8911 92.5044 18.9943 92.5044 20.3682V27.1676C92.5044 28.4212 92.705 29.3438 93.1162 29.9556C92.4342 30.4971 91.6721 30.7779 90.8497 30.7779C90.0173 30.7779 89.4457 30.5874 89.1348 30.1963C88.8239 29.8052 88.6635 29.2135 88.6635 28.4112V21.5516C88.6635 19.9871 88.142 19.2049 87.109 19.2049C86.3268 19.2049 85.4844 19.6762 84.5918 20.6089V30.5774C84.0102 30.6776 83.3683 30.7278 82.6864 30.7278C82.0044 30.7278 81.3727 30.6776 80.781 30.5774V21.5716Z" fill="#373747"/>
<path d="M107.397 28.8123C107.297 29.1633 107.126 29.5344 106.865 29.9255C106.605 30.3166 106.354 30.6074 106.103 30.808C104.83 30.6476 103.907 30.096 103.315 29.1332C102.042 30.3668 100.658 30.9785 99.1534 30.9785C98.3912 30.9785 97.7193 30.8582 97.1477 30.6074C96.566 30.3668 96.0947 30.0358 95.7136 29.6246C95.3325 29.2135 95.0517 28.7421 94.8611 28.2206C94.6706 27.6991 94.5803 27.1476 94.5803 26.5759C94.5803 25.7536 94.7207 25.0415 95.0015 24.4198C95.2823 23.808 95.6835 23.2865 96.205 22.8754C96.7265 22.4642 97.3282 22.1533 98.0202 21.9427C98.7121 21.7321 99.4743 21.6218 100.297 21.6218C101.35 21.6218 102.172 21.6519 102.754 21.712V20.9198C102.754 19.4355 102.032 18.6934 100.587 18.6934C99.6147 18.6934 98.1305 19.0344 96.1348 19.7163C95.5832 19.1146 95.2522 18.202 95.1419 16.9885C97.2078 16.106 99.354 15.6648 101.56 15.6648C103.024 15.6648 104.228 16.0759 105.161 16.8983C106.093 17.7206 106.565 18.9642 106.565 20.6189V26.6261C106.575 27.6791 106.845 28.4011 107.397 28.8123ZM100.006 28.0802C100.979 28.0802 101.901 27.649 102.764 26.7865V24.2393C102.453 24.2192 102.152 24.1991 101.851 24.1791C101.56 24.159 101.269 24.149 100.999 24.149C100.136 24.149 99.4843 24.3095 99.033 24.6304C98.5818 24.9513 98.3611 25.4828 98.3611 26.2249C98.3611 26.8066 98.5116 27.2679 98.8024 27.5888C99.1032 27.9097 99.5044 28.0802 100.006 28.0802Z" fill="#373747"/>
<path d="M108.771 17.7908C108.851 17.4398 109.011 17.0688 109.252 16.6776C109.493 16.2865 109.744 15.9957 110.004 15.7951C111.589 15.9857 112.672 16.8682 113.254 18.4327C113.996 16.6977 115.239 15.8252 116.974 15.8252C117.616 15.8252 118.208 15.8954 118.729 16.0258C118.729 17.3897 118.418 18.5831 117.787 19.606C117.496 19.5057 117.044 19.4355 116.443 19.4054C115.309 19.4054 114.387 20.0072 113.685 21.2206V30.5673C113.103 30.6676 112.471 30.7178 111.799 30.7178C111.127 30.7178 110.476 30.6676 109.854 30.5673V20.8095C109.854 19.4155 109.493 18.4126 108.771 17.7908Z" fill="#373747"/>
<path d="M128.668 16.0057C128.788 16.4771 128.848 16.9384 128.848 17.3797C128.848 17.8209 128.788 18.2923 128.668 18.7536L125.118 18.6934V26.4054C125.118 27.308 125.539 27.7493 126.381 27.7493H128.196C128.387 28.3309 128.487 28.8925 128.487 29.4241C128.487 29.9556 128.457 30.2966 128.397 30.447C127.203 30.6275 126.03 30.7077 124.877 30.7077C122.53 30.7077 121.357 29.5143 121.357 27.1275V18.7135L119.13 18.7436C119.03 18.3524 118.98 17.8911 118.98 17.3696C118.98 16.8481 119.03 16.3868 119.13 15.9957L121.357 16.0258V13.9198C121.357 13.0573 121.517 12.4556 121.828 12.1046C122.139 11.7536 122.681 11.5731 123.443 11.5731H124.907L125.107 11.7536V16.0659L128.668 16.0057Z" fill="#373747"/>
<path d="M143.199 23.9183H140.512V30.5673C139.96 30.6676 139.298 30.7178 138.536 30.7178C137.774 30.7178 137.112 30.6676 136.56 30.5673V10.7006L136.761 10.5201C138.345 10.4799 139.669 10.4499 140.732 10.4298C141.795 10.4097 142.618 10.3997 143.179 10.3997C145.285 10.3997 146.97 10.9814 148.234 12.1246C149.497 13.2779 150.119 14.9527 150.119 17.139C150.119 18.2321 149.949 19.2049 149.618 20.0372C149.287 20.8797 148.815 21.5817 148.214 22.1433C147.612 22.7149 146.88 23.1461 146.037 23.447C145.205 23.7679 144.252 23.9183 143.199 23.9183ZM140.512 13.4484V20.9198C141.274 20.8997 141.916 20.8897 142.447 20.8897C142.979 20.8897 143.44 20.8596 143.821 20.7894C144.202 20.7192 144.523 20.5989 144.784 20.4083C145.045 20.2278 145.285 19.947 145.496 19.5759C145.686 19.245 145.837 18.8639 145.937 18.4427C146.037 18.0215 146.088 17.6003 146.088 17.1691C146.088 16.7178 146.037 16.2765 145.937 15.8352C145.837 15.394 145.676 15.0029 145.446 14.6519C145.215 14.3009 144.904 14.0201 144.513 13.7994C144.122 13.5788 143.641 13.4785 143.059 13.4785C142.497 13.4785 142.006 13.4785 141.585 13.4785C141.153 13.4785 140.802 13.4685 140.512 13.4484Z" fill="#373747"/>
<path d="M161.582 17.2593C162.966 18.6433 163.668 20.659 163.668 23.2966C163.668 24.4699 163.517 25.533 163.226 26.4756C162.936 27.4284 162.504 28.2307 161.953 28.8925C161.401 29.5544 160.709 30.0659 159.887 30.4269C159.065 30.788 158.142 30.9685 157.099 30.9685C156.066 30.9685 155.143 30.788 154.331 30.4269C153.519 30.0659 152.837 29.5544 152.275 28.8925C151.714 28.2307 151.292 27.4183 151.002 26.4756C150.711 25.533 150.56 24.4699 150.56 23.2966C150.56 20.9298 151.132 19.0645 152.265 17.6805C153.398 16.2966 155.013 15.6146 157.099 15.6146C158.934 15.6246 160.428 16.1662 161.582 17.2593ZM157.099 18.4928C155.384 18.4928 154.522 20.0974 154.522 23.2966C154.522 26.4857 155.384 28.0702 157.099 28.0702C158.834 28.0702 159.706 26.4756 159.706 23.2966C159.706 20.0974 158.834 18.4928 157.099 18.4928Z" fill="#373747"/>
<path d="M164.6 29.5444C164.62 29.1132 164.741 28.6418 164.971 28.1203C165.192 27.5989 165.453 27.1977 165.744 26.9069C167.288 27.7493 168.642 28.1705 169.815 28.1705C170.457 28.1705 170.979 28.0401 171.38 27.7894C171.781 27.5387 171.981 27.1977 171.981 26.7665C171.981 26.0845 171.45 25.533 170.397 25.1218L168.752 24.51C166.285 23.6075 165.062 22.1734 165.062 20.1977C165.062 19.4957 165.192 18.8639 165.453 18.3023C165.714 17.7407 166.085 17.2693 166.566 16.8682C167.047 16.467 167.619 16.1562 168.281 15.9456C168.943 15.735 169.685 15.6246 170.507 15.6246C170.878 15.6246 171.289 15.6547 171.751 15.7149C172.212 15.7751 172.673 15.8553 173.145 15.9656C173.616 16.0759 174.067 16.1963 174.489 16.3367C174.92 16.4771 175.291 16.6175 175.602 16.7779C175.602 17.2693 175.501 17.7708 175.311 18.3023C175.11 18.8338 174.85 19.2249 174.519 19.4756C172.974 18.7937 171.64 18.4527 170.507 18.4527C169.996 18.4527 169.595 18.5731 169.304 18.8238C169.013 19.0745 168.863 19.3854 168.863 19.7765C168.863 20.3782 169.354 20.8596 170.327 21.2106L172.112 21.8524C173.405 22.3037 174.358 22.9155 174.98 23.6977C175.602 24.4799 175.913 25.3926 175.913 26.4255C175.913 27.8095 175.391 28.9226 174.358 29.755C173.325 30.5874 171.841 30.9986 169.905 30.9986C168.04 30.9785 166.265 30.4971 164.6 29.5444Z" fill="#373747"/>
<path d="M185.761 16.0057C185.881 16.4771 185.941 16.9384 185.941 17.3797C185.941 17.8209 185.881 18.2923 185.761 18.7536L182.211 18.6934V26.4054C182.211 27.308 182.632 27.7493 183.474 27.7493H185.289C185.48 28.3309 185.58 28.8925 185.58 29.4241C185.58 29.9556 185.55 30.2966 185.49 30.447C184.296 30.6275 183.123 30.7077 181.97 30.7077C179.623 30.7077 178.45 29.5143 178.45 27.1275V18.7135L176.223 18.7436C176.123 18.3524 176.073 17.8911 176.073 17.3696C176.073 16.8481 176.123 16.3868 176.223 15.9957L178.45 16.0258V13.9198C178.45 13.0573 178.61 12.4556 178.921 12.1046C179.232 11.7536 179.774 11.5731 180.536 11.5731H182L182.211 11.7536V16.0659L185.761 16.0057Z" fill="#373747"/>
<path d="M191.858 28.8123C191.918 28.2708 192.099 27.7092 192.4 27.1576C192.701 26.596 193.052 26.1547 193.443 25.8238C195.458 27.1175 197.424 27.7593 199.36 27.7593C200.302 27.7593 201.044 27.5387 201.586 27.0974C202.127 26.6562 202.408 26.1046 202.408 25.4427C202.368 24.3095 201.616 23.4169 200.152 22.7751L196.692 21.3109C195.328 20.7493 194.295 20.0172 193.613 19.1246C192.931 18.2321 192.59 17.2192 192.59 16.0659C192.59 15.1834 192.761 14.3811 193.102 13.659C193.443 12.937 193.934 12.3152 194.566 11.7937C195.198 11.2722 195.95 10.8711 196.822 10.5802C197.695 10.2894 198.658 10.139 199.711 10.139C201.857 10.139 203.973 10.6805 206.039 11.7536C205.978 12.947 205.517 13.9398 204.665 14.7421C202.689 13.8195 200.974 13.3682 199.51 13.3682C198.567 13.3682 197.855 13.5788 197.354 14.01C196.852 14.4413 196.602 14.9627 196.602 15.5845C196.602 16.4771 197.294 17.2192 198.688 17.8009L202.148 19.265C203.552 19.8467 204.635 20.6189 205.397 21.5817C206.159 22.5444 206.54 23.6476 206.54 24.8911C206.54 25.7736 206.38 26.586 206.069 27.3381C205.758 28.0903 205.287 28.7321 204.645 29.2736C204.013 29.8152 203.221 30.2364 202.268 30.5372C201.315 30.8381 200.202 30.9885 198.908 30.9885C196.421 30.9785 194.064 30.2564 191.858 28.8123Z" fill="#373747"/>
<path d="M220.64 20.7794V27.1676C220.64 28.4212 220.851 29.3438 221.252 29.9556C220.63 30.4971 219.878 30.7779 218.996 30.7779C218.153 30.7779 217.582 30.5874 217.271 30.2063C216.96 29.8252 216.8 29.2235 216.8 28.4011V21.5716C216.8 20.6891 216.689 20.0774 216.479 19.7264C216.268 19.3754 215.867 19.1948 215.275 19.1948C214.242 19.1948 213.269 19.6662 212.377 20.5989V30.5673C212.086 30.6275 211.785 30.6676 211.484 30.6877C211.183 30.7077 210.863 30.7178 210.532 30.7178C210.221 30.7178 209.91 30.7077 209.589 30.6877C209.278 30.6676 208.967 30.6275 208.656 30.5673V9.19627L208.827 8.9957H210.321C211.083 8.9957 211.615 9.17622 211.916 9.52722C212.216 9.87822 212.367 10.49 212.367 11.3725V17.5602C213.731 16.3668 215.115 15.7751 216.499 15.7751C217.903 15.7751 218.946 16.2264 219.618 17.139C220.3 18.0415 220.64 19.255 220.64 20.7794Z" fill="#373747"/>
<path d="M233.768 17.2593C235.152 18.6433 235.854 20.659 235.854 23.2966C235.854 24.4699 235.704 25.533 235.413 26.4756C235.122 27.4284 234.691 28.2307 234.139 28.8925C233.588 29.5544 232.896 30.0659 232.073 30.4269C231.251 30.788 230.328 30.9685 229.285 30.9685C228.252 30.9685 227.33 30.788 226.517 30.4269C225.705 30.0659 225.023 29.5544 224.461 28.8925C223.9 28.2307 223.479 27.4183 223.188 26.4756C222.897 25.533 222.747 24.4699 222.747 23.2966C222.747 20.9298 223.318 19.0645 224.451 17.6805C225.585 16.2966 227.199 15.6146 229.285 15.6146C231.121 15.6246 232.615 16.1662 233.768 17.2593ZM229.285 18.4928C227.57 18.4928 226.708 20.0974 226.708 23.2966C226.708 26.4857 227.57 28.0702 229.285 28.0702C231.02 28.0702 231.893 26.4756 231.893 23.2966C231.893 20.0974 231.02 18.4928 229.285 18.4928Z" fill="#373747"/>
<path d="M239.224 28.8123L236.295 16.2364C237.057 15.9255 237.749 15.765 238.361 15.765C238.973 15.765 239.424 15.8954 239.705 16.1562C239.986 16.4169 240.176 16.8281 240.277 17.3696L241.39 22.765C241.781 24.6805 242.062 26.255 242.242 27.4885C242.282 27.649 242.363 27.7192 242.473 27.7192L244.499 16.116C245.1 15.9957 245.863 15.9355 246.785 15.9355C247.708 15.9355 248.45 15.9957 249.012 16.116L251.037 27.4885C251.057 27.649 251.138 27.7192 251.268 27.7192C251.619 25.6834 251.92 24.0387 252.181 22.765L253.645 16.0258C254.056 15.9054 254.638 15.8453 255.39 15.8453C256.142 15.8453 256.734 15.9556 257.165 16.1662L257.285 16.3968L253.765 30.5573C253.123 30.6576 252.281 30.7077 251.258 30.7077C250.235 30.7077 249.533 30.5874 249.162 30.3567C248.791 30.1261 248.55 29.6246 248.43 28.8625L247.788 25.2622C247.397 23.0158 247.086 21.0802 246.845 19.4556H246.675C246.534 20.4685 246.214 22.394 245.712 25.2321L244.699 30.5673C244.017 30.6676 243.165 30.7178 242.152 30.7178C241.139 30.7178 240.437 30.5874 240.056 30.3367C239.675 30.0759 239.394 29.5745 239.224 28.8123Z" fill="#373747"/>
</svg>
