<svg width="100" height="100" viewBox="0 0 100 100" fill="none" xmlns="http://www.w3.org/2000/svg">
<path d="M97.9902 0H2.69608C1.39706 0 0 0.980633 0 2.27997V97.5484C0 98.8723 1.39706 100 2.69608 100H97.9902C99.2892 100 100 98.8478 100 97.5484V2.27997C99.9755 0.980633 99.2892 0 97.9902 0ZM39.5833 13.1895H60.4167V30.8899H39.5833V13.1895ZM13.8971 13.1895H34.7304V30.8899H13.8971V13.1895ZM46.5196 87.1537H13.8971V68.3991H46.5196V87.1537ZM46.5196 61.8044H13.8971V43.0498H46.5196V61.8044ZM87.1324 87.1537H54.5098V68.3991H87.1324V87.1537ZM87.1324 61.8044H54.5098V43.0498H87.1324V61.8044ZM87.1324 30.9144H66.299V13.1895H87.1324V30.9144Z" fill="#FECCBE"/>
</svg>
